<svg width="107" height="107" viewBox="0 0 107 107" fill="none" xmlns="http://www.w3.org/2000/svg">
<g clip-path="url(#clip0_1821_2993)">
<path d="M106.993 62.4167C106.989 60.8578 106.575 59.3274 105.792 57.9791C105.01 56.6309 103.886 55.5121 102.535 54.735V46.8125C102.521 34.4014 97.5842 22.5027 88.8082 13.7267C80.0322 4.95072 68.1335 0.0141599 55.7224 0L51.2641 0C38.853 0.0141599 26.9543 4.95072 18.1783 13.7267C9.40237 22.5027 4.46582 34.4014 4.45166 46.8125V54.735C3.11493 55.5228 2.00693 56.6458 1.23716 57.9931C0.467393 59.3403 0.0625 60.865 0.0625 62.4167C0.0625 63.9683 0.467393 65.4931 1.23716 66.8403C2.00693 68.1875 3.11493 69.3105 4.45166 70.0984V73.5625C4.4611 82.4278 7.98699 90.9273 14.2557 97.196C20.5244 103.465 29.0238 106.991 37.8891 107H69.0974C77.9627 106.991 86.4621 103.465 92.7308 97.196C98.9995 90.9273 102.525 82.4278 102.535 73.5625V70.0984C103.886 69.3213 105.01 68.2025 105.792 66.8542C106.575 65.5059 106.989 63.9756 106.993 62.4167ZM51.2641 13.375H55.7224C64.5877 13.3844 73.0872 16.9103 79.3559 23.179C85.6245 29.4477 89.1504 37.9472 89.1599 46.8125V53.5H17.8266V46.8125C17.8361 37.9472 21.362 29.4477 27.6307 23.179C33.8994 16.9103 42.3988 13.3844 51.2641 13.375ZM69.0974 93.625H37.8891C32.57 93.6191 27.4705 91.5035 23.7093 87.7423C19.9482 83.9811 17.8325 78.8816 17.8266 73.5625V71.4492C24.9243 72.011 27.5101 75.3458 34.6969 81.583C36.9868 83.5962 39.9315 84.7066 42.9805 84.7066C46.0295 84.7066 48.9742 83.5962 51.2641 81.583C61.5985 72.6129 61.8303 71.3333 75.7849 71.3333H89.1599V73.5625C89.154 78.8816 87.0384 83.9811 83.2772 87.7423C79.516 91.5035 74.4165 93.6191 69.0974 93.625ZM26.7433 37.8958C26.7433 36.1222 27.4479 34.4212 28.702 33.1671C29.9562 31.9129 31.6572 31.2083 33.4308 31.2083C35.2044 31.2083 36.9054 31.9129 38.1596 33.1671C39.4137 34.4212 40.1183 36.1222 40.1183 37.8958C40.1183 39.6695 39.4137 41.3705 38.1596 42.6246C36.9054 43.8788 35.2044 44.5833 33.4308 44.5833C31.6572 44.5833 29.9562 43.8788 28.702 42.6246C27.4479 41.3705 26.7433 39.6695 26.7433 37.8958ZM44.5766 28.9792C44.5766 27.2055 45.2812 25.5045 46.5353 24.2504C47.7895 22.9962 49.4905 22.2917 51.2641 22.2917C53.0377 22.2917 54.7387 22.9962 55.9929 24.2504C57.247 25.5045 57.9516 27.2055 57.9516 28.9792C57.9516 30.7528 57.247 32.4538 55.9929 33.7079C54.7387 34.9621 53.0377 35.6667 51.2641 35.6667C49.4905 35.6667 47.7895 34.9621 46.5353 33.7079C45.2812 32.4538 44.5766 30.7528 44.5766 28.9792Z" fill="white"/>
</g>
<defs>
<clipPath id="clip0_1821_2993">
<rect width="107" height="107" fill="white"/>
</clipPath>
</defs>
</svg>
