<svg width="267" height="53" viewBox="0 0 267 53" fill="none" xmlns="http://www.w3.org/2000/svg">
<path fill-rule="evenodd" clip-rule="evenodd" d="M20.8183 0.270267C20.3382 0.386054 19.6837 0.619374 19.3637 0.788399C19.0436 0.957716 18.2293 1.18754 17.5538 1.29955C16.8786 1.41126 16.0276 1.73477 15.6628 2.01813C15.2983 2.30178 14.5192 2.69045 13.9321 2.88188C13.3448 3.0733 12.7071 3.4195 12.5148 3.65137C12.3222 3.88323 12.0423 4.07291 11.8925 4.07291C11.107 4.07291 7.10127 7.68733 5.44418 9.89136C2.88843 13.2902 1.85652 15.228 0.90928 18.4067C0.0408768 21.3217 0.0100388 21.5894 0.000438384 26.2921C-0.00741652 30.0581 0.0865515 31.0621 0.586065 32.5446C0.913353 33.5157 1.181 34.4644 1.181 34.6529C1.181 35.2138 3.16044 39.1558 3.64366 39.557C3.8892 39.7607 4.09023 40.0501 4.09023 40.1999C4.09023 40.9616 8.26874 45.6024 10.028 46.7949C10.6534 47.219 11.5044 47.7948 11.9189 48.0746C14.1195 49.561 17.9847 50.9303 22.5638 51.8459C24.8251 52.298 31.5783 51.9564 33.3279 51.3018C35.6221 50.443 35.5098 50.6868 35.5098 46.5627C35.5098 43.3637 35.4328 42.735 34.9713 42.1651L34.4329 41.5001L32.5712 41.9949C31.5475 42.2672 30.186 42.63 29.5459 42.8014C28.8879 42.9774 27.1185 43.051 25.473 42.9707C20.603 42.7327 17.4619 41.3081 13.8169 37.6838C11.621 35.5001 10.7742 34.026 9.80045 30.6923C8.74411 27.0759 8.76564 24.5029 9.88075 21.0337C10.8859 17.9057 11.6184 16.6821 14.0278 14.1065C15.8391 12.1704 18.0842 10.7595 20.0211 10.34C20.5428 10.2271 21.3283 9.96118 21.7667 9.7491C22.8861 9.20769 26.3362 8.96012 28.2368 9.28479C30.2392 9.6272 32.726 10.5241 33.4242 11.156C34.1 11.7678 34.7479 11.7678 35.2562 11.1563C35.8174 10.4808 35.9736 3.05236 35.4473 2.0542C35.2215 1.62567 34.4398 1.08398 33.4734 0.685996C32.0132 0.0846589 31.4279 0.0285099 26.7822 0.0433469C23.982 0.0523655 21.2983 0.15448 20.8183 0.270267ZM58.5273 0.740397C57.3465 1.13314 56.1531 1.45461 55.8756 1.45461C55.598 1.45461 55.059 1.6984 54.6773 1.99631C54.2956 2.2945 53.6561 2.63488 53.2561 2.75271C51.0451 3.40525 45.4478 8.25027 43.5812 11.1278C43.0884 11.8877 42.5842 12.5097 42.4611 12.5097C42.032 12.5097 40.4788 16.1668 39.7428 18.91C39.0981 21.3127 39.0012 22.2657 39.0012 26.2045C39.0009 31.1133 39.4629 33.4305 41.1558 37.0088C41.5706 37.8857 41.9101 38.748 41.9101 38.9245C41.9101 39.1011 42.0873 39.3502 42.304 39.4782C42.5208 39.6062 42.8583 40.0158 43.054 40.3885C43.5085 41.2537 44.0388 41.9178 45.8376 43.874C47.1508 45.3024 50.3626 48.0022 50.7484 48.0022C50.8333 48.0022 51.3852 48.3295 51.9746 48.7295C52.564 49.1295 53.2468 49.4568 53.4921 49.4568C53.737 49.4568 54.1443 49.6433 54.3968 49.8714C54.6496 50.0992 55.6417 50.4765 56.6017 50.7098C57.5618 50.9428 59.1886 51.3589 60.2167 51.6344C61.7199 52.037 62.9447 52.1103 66.4716 52.0094C71.14 51.8758 73.8904 51.3114 76.9704 49.8554C77.7727 49.4763 78.521 49.1659 78.633 49.1659C78.745 49.1659 79.3978 48.7685 80.0835 48.2826C80.7692 47.7968 81.7883 47.0849 82.3484 46.7003C84.3025 45.3595 87.4226 42.0505 88.6652 40.0018C89.407 38.7785 91.3669 34.6838 91.3669 34.3568C91.3669 34.1685 91.6427 33.6414 91.9796 33.1855C92.567 32.3913 92.5865 32.1161 92.4489 26.579C92.3325 21.9035 92.1882 20.3846 91.6928 18.619C90.0965 12.9321 86.4731 8.13128 80.7701 4.14739C79.7981 3.46838 78.8849 2.91184 78.7409 2.91097C78.5969 2.9101 77.8114 2.59066 76.9954 2.20112C76.1793 1.81187 74.3797 1.15729 72.9964 0.746507C70.7193 0.0706947 70.0162 0.00116316 65.5778 0.013091C61.1689 0.0247279 60.4582 0.0980403 58.5273 0.740397ZM154.846 0.349107C154.337 0.858512 154.369 6.80409 154.883 7.23117C155.128 7.43423 157.389 7.58027 161.065 7.63031L166.861 7.70944L166.936 29.501C166.989 45.0112 167.104 51.4054 167.335 51.6838C167.8 52.2444 175.232 52.2444 175.697 51.6838C175.928 51.4054 176.043 45.0112 176.096 29.501L176.171 7.70944L182.946 7.56398C188.541 7.44383 189.769 7.34259 189.996 6.98214C190.148 6.74213 190.274 5.28955 190.276 3.75435C190.28 1.41592 190.194 0.884695 189.748 0.481476C189.266 0.0450926 187.626 0 172.206 0C159.363 0 155.11 0.0855314 154.846 0.349107ZM196.869 0.270267C196.252 0.396527 195.643 0.66854 195.516 0.874222C195.075 1.58815 194.982 4.88197 194.943 21.0447L194.904 37.2893L195.783 39.8281C196.954 43.2104 197.883 44.8047 199.845 46.7946C202.125 49.1077 203.893 50.2158 206.9 51.2149C209.108 51.9483 209.939 52.0751 212.536 52.0751C217.69 52.0751 221.644 50.4299 225.227 46.7949C227.044 44.9513 228.579 42.3906 229.517 39.637C230.124 37.8557 230.137 37.4307 230.137 19.3807C230.137 4.98408 230.057 0.878586 229.773 0.646139C228.702 -0.231574 222.243 -0.0855312 221.797 0.82622C221.667 1.09183 221.494 9.22951 221.412 18.91C221.267 36.1753 221.252 36.5367 220.635 37.8711C219.011 41.3849 215.834 43.2933 212.158 42.9637C208.794 42.6617 206.352 41.0602 204.984 38.2592C204.155 36.5596 204.128 36.3633 203.904 30.2588C203.777 26.8172 203.69 18.7898 203.71 12.4206C203.737 3.79916 203.658 0.751453 203.4 0.492823C202.99 0.082622 198.526 -0.0695302 196.869 0.270267ZM235.869 0.204227C234.702 0.304305 234.429 0.443075 234.196 1.05372C233.758 2.20665 233.828 51.2855 234.268 51.726C234.693 52.1513 241.696 52.2072 242.356 51.7906C242.72 51.5605 242.816 50.1902 242.938 43.4312L243.083 35.3471L246.692 35.4361C249.939 35.5164 250.509 35.613 252.365 36.3976C254.953 37.4917 255.865 38.2831 256.765 40.2159C257.431 41.6461 257.478 42.0659 257.481 46.5621C257.483 49.9156 257.59 51.4828 257.833 51.726C258.34 52.2334 265.341 52.2049 266.041 51.6925C266.522 51.3411 266.555 50.8346 266.451 45.5104C266.361 40.9243 266.24 39.5282 265.873 38.8381C265.618 38.3581 265.31 37.5072 265.19 36.9471C264.947 35.8137 263.812 34.0385 262.317 32.453C260.867 30.916 260.868 30.5434 262.324 29.0841C263.022 28.385 263.593 27.66 263.593 27.4735C263.593 27.2868 263.861 26.7931 264.189 26.3762C264.517 25.9593 265.13 24.6653 265.551 23.5004C266.214 21.6688 266.319 20.9115 266.33 17.8917C266.341 14.8763 266.238 14.0836 265.574 12.0733C264.509 8.84753 263.604 7.36121 261.298 5.04867C259.381 3.12625 257.999 2.2561 254.574 0.817783C253.044 0.174845 252.634 0.144297 245.119 0.115205C240.799 0.0983317 236.637 0.138479 235.869 0.204227ZM104.93 1.60676C104.7 1.83659 104.419 2.58397 104.307 3.26706C104.195 3.95044 103.913 4.9675 103.681 5.52753C103.449 6.08755 103.082 7.3967 102.866 8.43675C102.651 9.4768 102.272 10.8514 102.024 11.4914C101.777 12.1315 101.569 13.0793 101.562 13.5974C101.555 14.1158 101.288 15.2286 100.968 16.07C100.648 16.9116 100.303 18.2551 100.201 19.0551C100.099 19.8555 99.8319 20.8734 99.6073 21.3173C99.383 21.7613 99.0677 22.8741 98.9068 23.7902C98.7459 24.7063 98.3744 26.0448 98.0814 26.7649C97.7882 27.4849 97.4609 28.7714 97.3538 29.6235C97.2471 30.4756 96.9035 31.8223 96.5905 32.6162C96.2777 33.4101 96.0159 34.4147 96.0089 34.8487C96.0019 35.2828 95.7939 36.1617 95.5466 36.8017C95.2993 37.4417 94.9197 38.8163 94.7032 39.8564C94.4865 40.8964 94.1153 42.2928 93.8779 42.9596C93.6405 43.6261 93.363 44.8044 93.2609 45.5779C93.1587 46.3512 92.7951 47.8762 92.4527 48.9666C91.5104 51.9686 91.4173 51.9136 97.6151 52.0094C100.941 52.0606 102.915 51.9791 103.154 51.7807C103.358 51.6111 103.612 50.9862 103.72 50.3918C103.827 49.7975 104.151 48.5259 104.44 47.5658C104.73 46.6058 105.058 44.9039 105.171 43.7838C105.284 42.6638 105.558 41.0928 105.781 40.2928C106.004 39.4927 106.379 37.529 106.616 35.9289C106.852 34.3288 107.249 32.4469 107.497 31.7466C107.746 31.0467 107.95 29.9228 107.95 29.2496C107.95 28.5764 108.03 27.9451 108.128 27.8468C108.373 27.6021 109.695 28.4976 109.695 28.9075C109.694 29.089 110.331 30.5469 111.109 32.1469C111.887 33.747 112.678 35.3834 112.867 35.7835C113.055 36.1835 113.593 37.1653 114.062 37.9654C114.53 38.7654 115.177 39.9436 115.498 40.5837C115.818 41.2237 116.212 41.9437 116.372 42.1837C116.532 42.4238 116.86 43.0783 117.101 43.6384C117.341 44.1984 117.665 44.853 117.82 45.093C118.136 45.5826 118.705 46.6965 119.545 48.4685C119.856 49.1252 120.534 50.144 121.051 50.7331C121.94 51.7449 122.021 51.7772 122.527 51.3193C122.822 51.0528 123.148 50.5574 123.251 50.2184C123.355 49.8795 123.587 49.4228 123.768 49.2037C124.067 48.8398 126.077 45.2582 127.381 42.7656C127.673 42.2056 128.069 41.4855 128.259 41.1655C128.449 40.8455 128.736 40.2564 128.895 39.8564C129.055 39.4564 129.573 38.4745 130.047 37.6745C130.52 36.8744 131.041 35.8926 131.206 35.4925C131.371 35.0925 131.701 34.4379 131.941 34.0379C132.18 33.6379 132.588 32.8524 132.847 32.2924C133.106 31.7324 133.484 31.0778 133.688 30.8378C133.892 30.5978 134.212 29.9243 134.399 29.341C134.616 28.6655 134.967 28.2212 135.369 28.1162C135.715 28.0257 136.037 27.9905 136.085 28.0382C136.132 28.0859 136.299 29.1306 136.455 30.3601C136.611 31.5895 136.93 33.2801 137.165 34.1168C137.4 34.9535 137.677 36.4235 137.78 37.3835C137.883 38.3436 138.205 39.98 138.495 41.0201C138.785 42.0601 139.108 43.858 139.213 45.015C139.416 47.2598 140.37 51.0924 140.879 51.7051C141.342 52.2628 150.976 52.2281 151.745 51.6661C152.285 51.2713 152.287 51.2082 151.808 49.8478C151.535 49.0728 151.119 47.5876 150.883 46.5476C150.296 43.9575 149.323 40.2139 148.917 38.9836C148.732 38.4236 148.358 36.9181 148.085 35.638C147.504 32.9054 146.79 29.9839 146.059 27.3467C145.771 26.3067 145.34 24.6702 145.1 23.7102C144.861 22.7501 143.986 19.3463 143.157 16.1462C142.328 12.946 141.47 9.41134 141.251 8.29129C141.031 7.17124 140.55 5.33843 140.182 4.21837C139.4 1.83747 138.688 1.50756 137.869 3.14749C137.604 3.67871 137.178 4.34347 136.923 4.62508C136.669 4.9067 136.46 5.31312 136.46 5.5284C136.46 6.04624 134.659 9.54574 131.404 15.3517C128.625 20.3093 128.094 21.2635 126.695 23.8132C126.226 24.6696 125.487 25.9788 125.054 26.7224C124.621 27.4657 124.072 28.4772 123.834 28.9701C123.597 29.4626 123.198 30.0351 122.949 30.242C122.7 30.4488 122.496 30.8421 122.496 31.1159C122.496 31.3897 122.414 31.6951 122.314 31.7949C122.061 32.0486 120.893 30.262 120.466 28.966C120.27 28.3731 119.927 27.8174 119.702 27.7316C119.479 27.6458 119.295 27.3458 119.295 27.0654C119.295 26.7846 118.97 26.0754 118.572 25.4889C118.174 24.9024 117.769 24.1082 117.673 23.7241C117.576 23.3398 117.248 22.7993 116.942 22.5229C116.636 22.2463 116.386 21.8087 116.386 21.5507C116.386 21.2926 116.059 20.5999 115.659 20.0111C115.259 19.4226 114.932 18.8137 114.932 18.6586C114.932 18.5032 114.129 16.8272 113.149 14.9339C112.168 13.0406 111.122 11.0088 110.824 10.4191C110.525 9.82911 110.159 9.27083 110.009 9.1786C109.86 9.08609 109.579 8.52141 109.385 7.92356C109.191 7.32572 108.807 6.50939 108.533 6.10937C108.258 5.70935 107.916 5.05478 107.773 4.65476C107.369 3.52482 106.098 1.47992 105.703 1.32661C105.508 1.25068 105.16 1.37664 104.93 1.60676ZM70.8569 9.87245C71.977 10.2294 73.5945 10.8706 74.4513 11.2974C76.3507 12.2435 79.8729 15.6484 80.6386 17.2793C80.947 17.9362 81.3775 18.8009 81.5952 19.2009C82.0621 20.0591 82.5761 21.512 82.9849 23.1283C83.4085 24.8049 83.0602 29.5283 82.3841 31.2742C81.0121 34.817 78.9917 37.6427 76.5855 39.3839C73.7589 41.4294 73.5997 41.4969 68.5295 42.8092C66.7799 43.2622 62.4533 42.9404 59.9473 42.1712C54.9205 40.6279 50.632 36.3336 49.2108 31.4196C49.0025 30.6996 48.7107 29.9612 48.5624 29.7791C48.414 29.5967 48.2898 28.0816 48.2863 26.412C48.2813 23.9316 48.4131 22.9811 49.0081 21.2158C51.0349 15.2004 54.6377 11.5412 60.11 9.94024C62.9921 9.09685 63.2941 9.05758 66.2022 9.14456C67.9183 9.19606 69.5222 9.44683 70.8569 9.87245ZM251.811 9.91202C255.455 11.6849 256.594 13.3167 256.604 16.7787C256.618 21.1716 255.257 23.8239 252.134 25.4892C250.702 26.2525 249.992 26.4256 247.631 26.588C246.09 26.6939 244.403 26.695 243.883 26.5909L242.938 26.4012V17.6808V8.96012L246.647 9.08231C249.831 9.18704 250.562 9.30457 251.811 9.91202Z" fill="white"/>
</svg>
