<svg width="169" height="33" viewBox="0 0 169 33" fill="none" xmlns="http://www.w3.org/2000/svg">
<path fill-rule="evenodd" clip-rule="evenodd" d="M13.1847 0.171167C12.8807 0.244498 12.4662 0.392265 12.2635 0.499313C12.0608 0.606546 11.5451 0.752102 11.1173 0.823038C10.6896 0.893789 10.1507 1.09867 9.91966 1.27813C9.6888 1.45777 9.19538 1.70393 8.82357 1.82517C8.45157 1.9464 8.0477 2.16566 7.92591 2.3125C7.80394 2.45935 7.62669 2.57948 7.5318 2.57948C7.03433 2.57948 4.49742 4.86858 3.44794 6.26445C1.82931 8.41702 1.17578 9.6443 0.57587 11.6574C0.0258883 13.5036 0.00635784 13.6731 0.00027764 16.6515C-0.00469707 19.0366 0.0548153 19.6724 0.37117 20.6113C0.57845 21.2264 0.747958 21.8272 0.747958 21.9466C0.747958 22.3018 2.00159 24.7984 2.30762 25.0525C2.46313 25.1814 2.59044 25.3648 2.59044 25.4596C2.59044 25.942 5.2368 28.8811 6.35096 29.6364C6.74709 29.905 7.28602 30.2696 7.54857 30.4469C8.94223 31.3882 11.3902 32.2555 14.2902 32.8353C15.7224 33.1216 19.9993 32.9053 21.1074 32.4907C22.5604 31.9468 22.4893 32.1012 22.4893 29.4893C22.4893 27.4633 22.4405 27.0652 22.1482 26.7042L21.8072 26.283L20.6282 26.5965C19.9798 26.7689 19.1175 26.9987 18.7122 27.1072C18.2954 27.2187 17.1748 27.2653 16.1327 27.2144C13.0484 27.0637 11.0591 26.1614 8.75061 23.8661C7.3599 22.4831 6.82355 21.5495 6.20687 19.4382C5.53787 17.1478 5.5515 15.5183 6.25773 13.3212C6.8943 11.3401 7.35824 10.5652 8.88419 8.93403C10.0313 7.70785 11.4532 6.81425 12.6799 6.54856C13.0103 6.47707 13.5077 6.30867 13.7854 6.17435C14.4944 5.83147 16.6794 5.67467 17.8831 5.88029C19.1513 6.09715 20.7262 6.66519 21.1684 7.06538C21.5964 7.45285 22.0067 7.45285 22.3286 7.06556C22.684 6.63774 22.783 1.93314 22.4497 1.30098C22.3067 1.02958 21.8116 0.68651 21.1995 0.434458C20.2748 0.0536166 19.9041 0.018056 16.9618 0.0274527C15.1884 0.0331644 13.4887 0.0978361 13.1847 0.171167ZM37.0668 0.468912C36.319 0.717648 35.5632 0.921243 35.3874 0.921243C35.2116 0.921243 34.8702 1.07564 34.6285 1.26431C34.3868 1.45317 33.9818 1.66874 33.7284 1.74336C32.3282 2.15663 28.7832 5.2251 27.6011 7.04751C27.289 7.52876 26.9697 7.92269 26.8917 7.92269C26.6199 7.92269 25.6362 10.2389 25.1701 11.9762C24.7618 13.4979 24.7005 14.1015 24.7005 16.596C24.7003 19.7048 24.9929 21.1724 26.065 23.4386C26.3277 23.9939 26.5427 24.5401 26.5427 24.6519C26.5427 24.7637 26.655 24.9215 26.7922 25.0025C26.9295 25.0836 27.1432 25.343 27.2672 25.579C27.555 26.127 27.8909 26.5476 29.0301 27.7865C29.8618 28.6912 31.8959 30.401 32.1402 30.401C32.194 30.401 32.5435 30.6083 32.9168 30.8616C33.2901 31.115 33.7225 31.3222 33.8779 31.3222C34.033 31.3222 34.291 31.4403 34.4509 31.5848C34.611 31.7291 35.2393 31.968 35.8473 32.1158C36.4553 32.2634 37.4856 32.5269 38.1368 32.7013C39.0888 32.9563 39.8645 33.0028 42.0981 32.9388C45.0547 32.8543 46.7966 32.4968 48.7473 31.5747C49.2554 31.3346 49.7293 31.138 49.8003 31.138C49.8712 31.138 50.2846 30.8863 50.7189 30.5786C51.1532 30.2709 51.7986 29.8201 52.1533 29.5765C53.3909 28.7273 55.367 26.6316 56.1539 25.3342C56.6237 24.5594 57.865 21.9661 57.865 21.759C57.865 21.6398 58.0397 21.3059 58.253 21.0172C58.625 20.5142 58.6374 20.3399 58.5502 16.8331C58.4765 13.8721 58.3851 12.9101 58.0714 11.7919C57.0604 8.19021 54.7656 5.14975 51.1537 2.62665C50.5382 2.19661 49.9598 1.84414 49.8686 1.84359C49.7774 1.84304 49.2799 1.64073 48.7631 1.39402C48.2463 1.1475 47.1065 0.732941 46.2304 0.472782C44.7883 0.0447727 44.343 0.000736656 41.5321 0.00829085C38.7398 0.0156608 38.2897 0.0620914 37.0668 0.468912ZM98.068 0.221098C97.7454 0.543718 97.7655 4.3092 98.0912 4.57968C98.2462 4.70829 99.6787 4.80078 102.007 4.83247L105.677 4.88259L105.725 18.6837C105.758 28.5067 105.831 32.5563 105.978 32.7327C106.272 33.0877 110.979 33.0877 111.273 32.7327C111.42 32.5563 111.493 28.5067 111.526 18.6837L111.573 4.88259L115.864 4.79046C119.408 4.71437 120.185 4.65025 120.329 4.42196C120.425 4.26996 120.505 3.35001 120.507 2.37773C120.509 0.896737 120.455 0.5603 120.173 0.304931C119.867 0.0285583 118.828 0 109.062 0C100.929 0 98.235 0.0541692 98.068 0.221098ZM124.682 0.171167C124.291 0.251131 123.906 0.423403 123.825 0.553667C123.546 1.00581 123.487 3.09187 123.462 13.3282L123.437 23.6162L123.994 25.2242C124.736 27.3662 125.324 28.3759 126.567 29.6362C128.011 31.1011 129.131 31.8029 131.035 32.4357C132.434 32.9002 132.96 32.9805 134.604 32.9805C137.868 32.9805 140.373 31.9386 142.642 29.6364C143.793 28.4688 144.765 26.847 145.359 25.1031C145.743 23.975 145.752 23.7058 145.752 12.2743C145.752 3.15654 145.701 0.556431 145.521 0.409216C144.843 -0.146662 140.752 -0.054169 140.469 0.523266C140.387 0.691485 140.278 5.84528 140.226 11.9762C140.134 22.9107 140.124 23.1396 139.734 23.9847C138.705 26.2101 136.693 27.4188 134.365 27.21C132.234 27.0188 130.688 26.0045 129.822 24.2305C129.296 23.1541 129.28 23.0298 129.137 19.1637C129.057 16.984 129.002 11.9001 129.015 7.86631C129.032 2.4061 128.982 0.475914 128.818 0.312117C128.559 0.0523266 125.731 -0.0440352 124.682 0.171167ZM149.382 0.129342C148.642 0.192724 148.47 0.280611 148.323 0.667348C148.045 1.39753 148.089 32.4804 148.368 32.7594C148.637 33.0288 153.072 33.0641 153.49 32.8003C153.721 32.6545 153.781 31.7867 153.858 27.5061L153.951 22.3862L156.237 22.4426C158.292 22.4934 158.654 22.5546 159.829 23.0515C161.468 23.7445 162.046 24.2456 162.616 25.4698C163.037 26.3755 163.067 26.6414 163.069 29.489C163.07 31.6128 163.138 32.6054 163.292 32.7594C163.613 33.0807 168.047 33.0627 168.491 32.7382C168.795 32.5156 168.816 32.1948 168.75 28.8229C168.693 25.9184 168.616 25.0342 168.384 24.5972C168.222 24.2932 168.028 23.7542 167.952 23.3996C167.798 22.6817 167.079 21.5574 166.132 20.5533C165.214 19.5799 165.214 19.3439 166.136 18.4197C166.578 17.9769 166.94 17.5178 166.94 17.3997C166.94 17.2814 167.11 16.9687 167.318 16.7047C167.525 16.4407 167.914 15.6211 168.18 14.8834C168.6 13.7234 168.666 13.2438 168.674 11.3313C168.681 9.42155 168.615 8.91947 168.195 7.64631C167.52 5.60337 166.947 4.66204 165.487 3.19745C164.273 1.97993 163.397 1.42885 161.228 0.517923C160.259 0.110733 160 0.0913872 155.24 0.0729624C152.504 0.062276 149.868 0.0877022 149.382 0.129342ZM66.4547 1.0176C66.3089 1.16316 66.1315 1.6365 66.0602 2.06911C65.9891 2.50191 65.8105 3.14604 65.6635 3.50072C65.5166 3.8554 65.2845 4.68452 65.1478 5.34321C65.0113 6.00189 64.7712 6.87247 64.6146 7.27782C64.458 7.68316 64.3262 8.28344 64.3218 8.61159C64.3174 8.93992 64.1481 9.64467 63.9454 10.1775C63.7429 10.7105 63.5244 11.5614 63.4597 12.0681C63.3952 12.575 63.2261 13.2196 63.0838 13.5008C62.9418 13.782 62.7421 14.4867 62.6402 15.0669C62.5383 15.6471 62.303 16.4948 62.1174 16.9509C61.9317 17.4069 61.7244 18.2216 61.6566 18.7613C61.589 19.301 61.3714 20.1538 61.1732 20.6567C60.9751 21.1595 60.8093 21.7957 60.8049 22.0706C60.8004 22.3455 60.6687 22.9021 60.5121 23.3074C60.3555 23.7128 60.115 24.5834 59.978 25.242C59.8407 25.9007 59.6056 26.7851 59.4552 27.2074C59.3049 27.6295 59.1291 28.3757 59.0645 28.8657C58.9998 29.3554 58.7695 30.3212 58.5526 31.0118C57.9558 32.913 57.8969 32.8782 61.8221 32.9388C63.9284 32.9713 65.1784 32.9197 65.3298 32.794C65.459 32.6866 65.6204 32.2908 65.6884 31.9144C65.7562 31.538 65.9616 30.7327 66.1448 30.1246C66.3279 29.5166 66.5361 28.4388 66.6074 27.7294C66.6789 27.02 66.8526 26.0251 66.9936 25.5184C67.1347 25.0117 67.3726 23.7681 67.5224 22.7547C67.672 21.7413 67.9233 20.5494 68.0808 20.1059C68.2384 19.6626 68.3672 18.9509 68.3672 18.5245C68.3672 18.0982 68.4182 17.6984 68.4805 17.6361C68.6354 17.4811 69.4726 18.0482 69.4725 18.3079C69.4723 18.4228 69.8754 19.3461 70.3683 20.3595C70.861 21.3728 71.3619 22.4092 71.4813 22.6626C71.6007 22.9159 71.9414 23.5377 72.2382 24.0444C72.535 24.5511 72.9443 25.2973 73.1475 25.7027C73.3507 26.108 73.5998 26.564 73.7013 26.716C73.8027 26.868 74.0103 27.2826 74.1629 27.6373C74.3153 27.992 74.5201 28.4065 74.6183 28.5585C74.8184 28.8686 75.179 29.5741 75.7109 30.6964C75.9081 31.1122 76.3372 31.7574 76.6648 32.1305C77.2275 32.7714 77.2791 32.7918 77.5995 32.5018C77.7861 32.333 77.9925 32.0193 78.0581 31.8046C78.1237 31.59 78.2709 31.3007 78.3851 31.162C78.5749 30.9315 79.8479 28.6632 80.6733 27.0845C80.8587 26.7299 81.109 26.2738 81.2295 26.0712C81.35 25.8685 81.5315 25.4954 81.6327 25.242C81.7338 24.9887 82.062 24.3669 82.3618 23.8602C82.6615 23.3535 82.9919 22.7317 83.0962 22.4783C83.2003 22.225 83.4096 21.8104 83.5614 21.5571C83.7132 21.3037 83.9715 20.8063 84.1355 20.4516C84.2993 20.0969 84.539 19.6823 84.6682 19.5303C84.7973 19.3783 84.9998 18.9518 85.1183 18.5824C85.2556 18.1546 85.4783 17.8732 85.7324 17.8067C85.9517 17.7494 86.1558 17.7271 86.1858 17.7573C86.216 17.7875 86.3214 18.4492 86.4202 19.2278C86.519 20.0064 86.7214 21.0771 86.8701 21.607C87.0188 22.1369 87.194 23.0679 87.2594 23.6759C87.3249 24.284 87.5288 25.3204 87.7125 25.979C87.8962 26.6377 88.1009 27.7764 88.1672 28.5091C88.2957 29.9308 88.9002 32.3581 89.2221 32.7461C89.5152 33.0993 95.6171 33.0774 96.1039 32.7214C96.4459 32.4714 96.4474 32.4314 96.1439 31.5699C95.9709 31.079 95.7074 30.1384 95.558 29.4798C95.1862 27.8394 94.5701 25.4685 94.3128 24.6893C94.1958 24.3346 93.9589 23.3811 93.7863 22.5704C93.4178 20.8398 92.9656 18.9896 92.5032 17.3194C92.3208 16.6607 92.0473 15.6243 91.8955 15.0163C91.7439 14.4082 91.1902 12.2525 90.6651 10.2258C90.1402 8.19906 89.5968 5.96044 89.4577 5.25108C89.3186 4.54173 89.0141 3.38096 88.781 2.6716C88.2853 1.16371 87.8343 0.954776 87.3158 1.99338C87.1478 2.32982 86.8782 2.75083 86.717 2.92918C86.5556 3.10754 86.4235 3.36493 86.4235 3.50127C86.4235 3.82924 85.2828 6.04556 83.2215 9.72261C81.4612 12.8624 81.1249 13.4667 80.2394 15.0815C79.9418 15.6239 79.474 16.453 79.1999 16.924C78.9257 17.3947 78.5782 18.0353 78.4275 18.3475C78.277 18.6594 78.0246 19.022 77.8666 19.153C77.7087 19.284 77.5796 19.5331 77.5796 19.7065C77.5796 19.8799 77.5278 20.0733 77.4646 20.1365C77.3041 20.2972 76.5647 19.1657 76.2939 18.3449C76.1699 17.9694 75.9525 17.6175 75.8106 17.5631C75.6689 17.5088 75.5528 17.3188 75.5528 17.1412C75.5528 16.9634 75.3467 16.5142 75.0946 16.1427C74.8424 15.7713 74.5863 15.2683 74.5253 15.0251C74.4641 14.7817 74.2559 14.4394 74.0623 14.2643C73.8688 14.0891 73.7104 13.812 73.7104 13.6486C73.7104 13.4851 73.5031 13.0465 73.2497 12.6735C72.9964 12.3008 72.7891 11.9152 72.7891 11.817C72.7891 11.7186 72.281 10.6571 71.66 9.45803C71.0389 8.25894 70.3762 6.97215 70.1873 6.59868C69.9985 6.22502 69.7663 5.87145 69.6716 5.81304C69.5769 5.75445 69.3991 5.39682 69.2762 5.01819C69.1535 4.63956 68.9105 4.12256 68.7364 3.86922C68.5623 3.61588 68.3458 3.20132 68.2553 2.94798C67.9998 2.23235 67.1944 0.937272 66.9446 0.840173C66.8208 0.792085 66.6004 0.871864 66.4547 1.0176ZM44.8755 6.25247C45.5848 6.47855 46.6093 6.88463 47.1519 7.15492C48.3548 7.7541 50.5855 9.91054 51.0705 10.9434C51.2658 11.3595 51.5385 11.9071 51.6763 12.1604C51.972 12.7039 52.2976 13.6241 52.5564 14.6478C52.8247 15.7096 52.6041 18.701 52.176 19.8067C51.307 22.0505 50.0274 23.8401 48.5035 24.9428C46.7134 26.2383 46.6126 26.281 43.4015 27.1122C42.2934 27.399 39.5533 27.1953 37.9662 26.7081C34.7825 25.7307 32.0665 23.011 31.1665 19.8988C31.0345 19.4428 30.8497 18.9752 30.7558 18.8599C30.6618 18.7443 30.5831 17.7848 30.5809 16.7274C30.5778 15.1565 30.6613 14.5545 31.038 13.4365C32.3217 9.6268 34.6034 7.30932 38.0692 6.2954C39.8945 5.76127 40.0858 5.73639 41.9275 5.79148C43.0144 5.8241 44.0301 5.98292 44.8755 6.25247ZM159.478 6.27753C161.786 7.40034 162.507 8.43379 162.514 10.6263C162.523 13.4085 161.66 15.0883 159.683 16.1429C158.776 16.6264 158.326 16.736 156.831 16.8388C155.855 16.9059 154.787 16.9066 154.457 16.8407L153.858 16.7206V11.1977V5.67467L156.208 5.75205C158.224 5.81838 158.687 5.89282 159.478 6.27753Z" fill="black"/>
</svg>
