<svg width="107" height="107" viewBox="0 0 107 107" fill="none" xmlns="http://www.w3.org/2000/svg">
<g clip-path="url(#clip0_1821_2984)">
<path d="M44.5833 35.6666C44.5833 30.7421 40.5912 26.75 35.6666 26.75C30.7421 26.75 26.75 30.7421 26.75 35.6666C26.75 40.5911 30.7421 44.5833 35.6666 44.5833C40.5912 44.5833 44.5833 40.5911 44.5833 35.6666Z" fill="white"/>
<path d="M44.5833 66.8751C44.5833 61.9506 40.5912 57.9584 35.6666 57.9584C30.7421 57.9584 26.75 61.9506 26.75 66.8751C26.75 71.7996 30.7421 75.7917 35.6666 75.7917C40.5912 75.7917 44.5833 71.7996 44.5833 66.8751Z" fill="white"/>
<path d="M75.7903 71.3334C75.7903 66.4088 71.7982 62.4167 66.8737 62.4167C61.9492 62.4167 57.957 66.4088 57.957 71.3334C57.957 76.2579 61.9492 80.25 66.8737 80.25C71.7982 80.25 75.7903 76.2579 75.7903 71.3334Z" fill="white"/>
<path d="M48.7206 -0.160957C35.7819 1.13647 23.7423 7.04729 14.803 16.4909C5.86365 25.9345 0.62174 38.28 0.0355896 51.2704C-0.223762 58.3773 0.936434 65.4647 3.44834 72.118C5.96024 78.7713 9.77343 84.8571 14.6649 90.0194C19.5565 95.1817 25.4281 99.3169 31.9366 102.183C38.445 105.05 45.4596 106.59 52.5703 106.713C59.6809 106.837 66.7448 105.542 73.3489 102.903C79.9531 100.265 85.9649 96.3359 91.0328 91.3467C96.1008 86.3575 100.123 80.408 102.865 73.846C105.606 67.2839 107.012 60.2412 107 53.1295C107 51.6226 106.902 50.1469 106.781 48.6712C106.642 46.9889 105.871 45.4215 104.624 44.2837C103.377 43.1459 101.746 42.5217 100.058 42.5365L84.7885 42.6702C82.2584 42.6923 79.7791 41.9608 77.6661 40.569C75.5531 39.1772 73.9022 37.1881 72.9235 34.8549C71.9448 32.5216 71.6826 29.9499 72.1703 27.4672C72.6581 24.9845 73.8737 22.7031 75.6623 20.9136L76.1081 20.4678C77.3665 19.2113 78.289 17.6586 78.7907 15.9526C79.2924 14.2465 79.3572 12.4417 78.9793 10.704C78.612 8.99442 77.8216 7.40435 76.6805 6.07943C75.5394 4.7545 74.0841 3.73708 72.4478 3.12038C64.892 0.233528 56.7764 -0.888809 48.7206 -0.160957ZM63.7273 14.3242C60.8237 18.2247 59.0662 22.8582 58.6527 27.7033C58.2393 32.5483 59.1862 37.4127 61.3869 41.7488C63.5877 46.085 66.9549 49.7209 71.1097 52.2474C75.2645 54.7739 80.0419 56.0907 84.9044 56.0497L93.5224 55.9739C92.78 66.3385 88.0457 76.011 80.3159 82.9555C72.5861 89.9 62.4637 93.5751 52.079 93.2071C41.6944 92.8391 31.8574 88.4569 24.6385 80.9826C17.4197 73.5084 13.3818 63.5251 13.3749 53.134C13.3749 52.6881 13.3749 52.1888 13.4017 51.7162C13.842 41.9791 17.7712 32.7256 24.4713 25.6465C31.1714 18.5674 40.195 14.1355 49.8931 13.1605C54.5371 12.7383 59.2191 13.1322 63.7273 14.3242Z" fill="white"/>
</g>
<defs>
<clipPath id="clip0_1821_2984">
<rect width="107" height="107" fill="white" transform="matrix(0 -1 1 0 0 107)"/>
</clipPath>
</defs>
</svg>
