<svg width="19" height="19" viewBox="0 0 19 19" fill="none" xmlns="http://www.w3.org/2000/svg">
<g clip-path="url(#clip0_916_1297)">
<path d="M8.70898 3.16699H3.16732C2.74739 3.16699 2.34466 3.33381 2.04773 3.63074C1.7508 3.92767 1.58398 4.3304 1.58398 4.75033V15.8337C1.58398 16.2536 1.7508 16.6563 2.04773 16.9532C2.34466 17.2502 2.74739 17.417 3.16732 17.417H14.2507C14.6706 17.417 15.0733 17.2502 15.3702 16.9532C15.6672 16.6563 15.834 16.2536 15.834 15.8337V10.292" stroke="black" stroke-width="1.41" stroke-linecap="round" stroke-linejoin="round"/>
<path d="M14.6465 1.97918C14.9614 1.66424 15.3886 1.4873 15.834 1.4873C16.2794 1.4873 16.7065 1.66424 17.0215 1.97918C17.3364 2.29413 17.5134 2.72128 17.5134 3.16668C17.5134 3.61208 17.3364 4.03924 17.0215 4.35418L9.50065 11.875L6.33398 12.6667L7.12565 9.50002L14.6465 1.97918Z" stroke="black" stroke-width="1.41" stroke-linecap="round" stroke-linejoin="round"/>
</g>
<defs>
<clipPath id="clip0_916_1297">
<rect width="19" height="19" fill="white"/>
</clipPath>
</defs>
</svg>
