<svg width="107" height="107" viewBox="0 0 107 107" fill="none" xmlns="http://www.w3.org/2000/svg">
<g clip-path="url(#clip0_1991_4461)">
<path d="M107 44.9928L101.432 19.2058C100.247 13.7463 97.2228 8.85956 92.8652 5.36388C88.5075 1.8682 83.0812 -0.0241539 77.4948 0.00372159H29.5053C23.9188 -0.0241539 18.4925 1.8682 14.1348 5.36388C9.77721 8.85956 6.75293 13.7463 5.56846 19.2058L0.1605 43.5438L0 49.2505C0.0201558 53.7237 1.59641 58.0506 4.45833 61.4886V82.4829C4.46541 88.984 7.05113 95.2169 11.6481 99.8139C16.2452 104.411 22.478 106.997 28.9792 107.004H78.0208C84.522 106.997 90.7548 104.411 95.3519 99.8139C99.9489 95.2169 102.535 88.984 102.542 82.4829V61.4886C105.404 58.0506 106.98 53.7237 107 49.2505V44.9928ZM13.375 45.7284L18.6225 22.0992C19.1741 19.6246 20.553 17.4121 22.5315 15.8267C24.51 14.2413 26.9699 13.3778 29.5053 13.3787H31.2083V20.0662C31.2083 21.8399 31.9129 23.5409 33.1671 24.795C34.4212 26.0492 36.1222 26.7537 37.8958 26.7537C39.6695 26.7537 41.3705 26.0492 42.6246 24.795C43.8788 23.5409 44.5833 21.8399 44.5833 20.0662V13.3787H62.4167V20.0662C62.4167 21.8399 63.1212 23.5409 64.3754 24.795C65.6295 26.0492 67.3305 26.7537 69.1042 26.7537C70.8778 26.7537 72.5788 26.0492 73.8329 24.795C75.0871 23.5409 75.7917 21.8399 75.7917 20.0662V13.3787H77.4948C80.0313 13.3783 82.4922 14.243 84.4708 15.8302C86.4495 17.4173 87.8276 19.6319 88.3775 22.1081L93.625 45.7284V49.2505C93.5821 50.8342 92.9228 52.3387 91.7875 53.4437C90.6521 54.5487 89.1304 55.167 87.5461 55.167C85.9617 55.167 84.44 54.5487 83.3046 53.4437C82.1693 52.3387 81.51 50.8342 81.4671 49.2505C81.4965 47.7948 81.2352 46.348 80.6984 44.9946C80.1617 43.6412 79.3603 42.4085 78.3413 41.3686C77.3222 40.3288 76.1059 39.5027 74.7637 38.9388C73.4214 38.3749 71.9801 38.0844 70.5241 38.0844C69.0682 38.0844 67.6269 38.3749 66.2846 38.9388C64.9423 39.5027 63.7261 40.3288 62.707 41.3686C61.688 42.4085 60.8866 43.6412 60.3499 44.9946C59.8131 46.348 59.5518 47.7948 59.5812 49.2505C59.5812 50.8633 58.9405 52.4101 57.8 53.5505C56.6596 54.6909 55.1128 55.3316 53.5 55.3316C51.8872 55.3316 50.3404 54.6909 49.2 53.5505C48.0595 52.4101 47.4188 50.8633 47.4188 49.2505C47.4482 47.7948 47.1869 46.348 46.6502 44.9946C46.1134 43.6412 45.3121 42.4085 44.293 41.3686C43.2739 40.3288 42.0577 39.5027 40.7154 38.9388C39.3731 38.3749 37.9318 38.0844 36.4759 38.0844C35.0199 38.0844 33.5786 38.3749 32.2363 38.9388C30.8941 39.5027 29.6778 40.3288 28.6587 41.3686C27.6397 42.4085 26.8383 43.6412 26.3016 44.9946C25.7648 46.348 25.5035 47.7948 25.5329 49.2505C25.49 50.8342 24.8307 52.3387 23.6954 53.4437C22.56 54.5487 21.0383 55.167 19.4539 55.167C17.8696 55.167 16.3479 54.5487 15.2125 53.4437C14.0772 52.3387 13.4179 50.8342 13.375 49.2505V45.7284ZM78.0208 93.6287H28.9792C26.0231 93.6287 23.1881 92.4544 21.0979 90.3642C19.0076 88.2739 17.8333 85.4389 17.8333 82.4829V68.5372C18.3773 68.5863 18.8989 68.7022 19.4562 68.7022C22.9317 68.6996 26.3432 67.7668 29.3365 66.0004C32.3297 64.2341 34.7956 61.6987 36.4781 58.6576C38.159 61.6999 40.6246 64.2361 43.6182 66.0023C46.6119 67.7685 50.0242 68.7 53.5 68.7C56.9758 68.7 60.3881 67.7685 63.3818 66.0023C66.3754 64.2361 68.841 61.6999 70.5219 58.6576C72.2044 61.6987 74.6703 64.2341 77.6635 66.0004C80.6568 67.7668 84.0683 68.6996 87.5438 68.7022C88.1011 68.7022 88.6228 68.5863 89.1667 68.5372V82.4829C89.1667 83.9466 88.8784 85.3959 88.3182 86.7482C87.7581 88.1005 86.9371 89.3292 85.9021 90.3642C84.8671 91.3992 83.6384 92.2202 82.2862 92.7803C80.9339 93.3404 79.4845 93.6287 78.0208 93.6287Z" fill="white"/>
</g>
<defs>
<clipPath id="clip0_1991_4461">
<rect width="107" height="107" fill="white"/>
</clipPath>
</defs>
</svg>
