<svg width="107" height="107" viewBox="0 0 107 107" fill="none" xmlns="http://www.w3.org/2000/svg">
<g clip-path="url(#clip0_1821_2992)">
<path d="M82.2466 71.3336C78.9938 71.3251 75.7717 71.9632 72.7677 73.2107C69.7636 74.4582 67.0375 76.2904 64.7476 78.6007C54.5826 88.788 40.1465 93.759 20.6101 93.759H15.706C15.2399 93.7735 14.7811 93.6415 14.394 93.3816C14.0069 93.1217 13.7111 92.7469 13.5481 92.3101C13.353 91.8794 13.2976 91.3986 13.3895 90.9349C13.4814 90.4711 13.7162 90.0478 14.0608 89.7242L16.339 87.4416C26.6437 86.7769 36.3496 82.3671 43.6285 75.0429L60.7218 57.8873C60.9402 57.8873 61.1676 57.9408 61.3771 57.9497C61.765 57.9497 62.1529 57.9764 62.5363 57.9764C69.7041 57.9685 76.5761 55.1177 81.6447 50.0495L85.7107 45.979C88.3576 43.3195 90.4234 40.1394 91.7773 36.64C93.1312 33.1406 93.7437 29.3982 93.5761 25.6497C93.4084 21.9013 92.4643 18.2285 90.8034 14.8639C89.1425 11.4994 86.8011 8.51633 83.9274 6.10371C78.5494 1.82179 71.7714 -0.307362 64.9109 0.130172C58.0504 0.567707 51.5977 3.54066 46.8073 8.47109L44.2304 11.0569C41.2655 14.0244 38.9888 17.6071 37.5612 21.5515C36.1337 25.496 35.5901 29.7059 35.9691 33.8836L19.2548 50.6291C11.9531 57.9318 7.56135 67.644 6.90076 77.9498L4.60026 80.2503C2.40328 82.4509 0.907468 85.2531 0.30161 88.3031C-0.304248 91.3531 0.00700656 94.5142 1.19609 97.3874C2.38517 100.261 4.39878 102.717 6.98277 104.447C9.56676 106.177 12.6053 107.103 15.7149 107.107H20.619C43.8826 107.107 61.4173 100.866 74.2216 88.0345C75.2721 86.9754 76.5224 86.1353 77.8999 85.5629C79.2774 84.9904 80.7549 84.697 82.2466 84.6997C85.2693 84.7068 88.1654 85.914 90.2982 88.056C92.4309 90.1979 93.6257 93.0992 93.6198 96.1219V100.429C93.6198 102.202 94.3244 103.903 95.5785 105.157C96.8327 106.412 98.5337 107.116 100.307 107.116C102.081 107.116 103.782 106.412 105.036 105.157C106.29 103.903 106.995 102.202 106.995 100.429V96.1219C106.995 89.5546 104.389 83.2557 99.7487 78.6081C95.1086 73.9605 88.8139 71.3442 82.2466 71.3336ZM53.6776 20.5086L56.2501 17.9317C59.0864 15.0493 62.9509 13.4105 66.9946 13.3753C70.036 13.3424 72.9903 14.3898 75.3317 16.3311C76.7859 17.5521 77.9707 19.0617 78.8111 20.7643C79.6515 22.467 80.1291 24.3257 80.2138 26.2225C80.2985 28.1194 79.9883 30.0132 79.3029 31.784C78.6176 33.5548 77.5719 35.1639 76.2323 36.5096L72.1663 40.5845C70.8315 41.9244 69.2315 42.9707 67.4689 43.6566C65.7064 44.3425 63.82 44.6528 61.9306 44.5676C60.0412 44.4824 58.1904 44.0036 56.4967 43.1619C54.803 42.3201 53.3037 41.134 52.0949 39.6794C49.9452 36.8524 48.9175 33.33 49.2097 29.7905C49.5019 26.251 51.0934 22.9448 53.6776 20.5086ZM28.7109 60.0986L41.2879 47.4771C41.4885 47.7356 41.6223 48.0254 41.8318 48.2751C43.2993 50.0131 44.9817 51.5577 46.8385 52.8716L34.1635 65.5823C30.5633 69.2061 26.0739 71.8198 21.1451 73.1615C22.4831 68.2117 25.0965 63.6997 28.7243 60.0763L28.7109 60.0986Z" fill="white"/>
</g>
<defs>
<clipPath id="clip0_1821_2992">
<rect width="107" height="107" fill="white"/>
</clipPath>
</defs>
</svg>
