<svg width="107" height="107" viewBox="0 0 107 107" fill="none" xmlns="http://www.w3.org/2000/svg">
<path d="M86.9375 26.7496H64.6458C59.3267 26.7555 54.2272 28.8711 50.466 32.6323C46.7048 36.3935 44.5892 41.493 44.5833 46.8121V62.4163H13.375V15.6038C13.375 13.8301 12.6704 12.1291 11.4163 10.875C10.1621 9.62083 8.46114 8.91626 6.6875 8.91626C4.91387 8.91626 3.21287 9.62083 1.95872 10.875C0.704574 12.1291 0 13.8301 0 15.6038L0 91.3954C0 93.1691 0.704574 94.8701 1.95872 96.1242C3.21287 97.3783 4.91387 98.0829 6.6875 98.0829C8.46114 98.0829 10.1621 97.3783 11.4163 96.1242C12.6704 94.8701 13.375 93.1691 13.375 91.3954V84.7079H93.625V91.3954C93.625 93.1691 94.3296 94.8701 95.5837 96.1242C96.8379 97.3783 98.5389 98.0829 100.312 98.0829C102.086 98.0829 103.787 97.3783 105.041 96.1242C106.295 94.8701 107 93.1691 107 91.3954V46.8121C106.994 41.493 104.878 36.3935 101.117 32.6323C97.3561 28.8711 92.2566 26.7555 86.9375 26.7496ZM93.625 62.4163H57.9583V46.8121C57.9583 45.0385 58.6629 43.3375 59.9171 42.0833C61.1712 40.8292 62.8722 40.1246 64.6458 40.1246H86.9375C88.7111 40.1246 90.4121 40.8292 91.6663 42.0833C92.9204 43.3375 93.625 45.0385 93.625 46.8121V62.4163ZM28.9792 62.4163C26.7747 62.4163 24.6198 61.7626 22.7869 60.5378C20.954 59.3131 19.5254 57.5724 18.6818 55.5358C17.8382 53.4991 17.6174 51.2581 18.0475 49.096C18.4776 46.9339 19.5391 44.9479 21.0979 43.3891C22.6566 41.8304 24.6426 40.7688 26.8047 40.3388C28.9668 39.9087 31.2079 40.1294 33.2445 40.973C35.2811 41.8166 37.0219 43.2452 38.2466 45.0781C39.4713 46.9111 40.125 49.066 40.125 51.2704C40.125 54.2265 38.9507 57.0615 36.8605 59.1517C34.7702 61.242 31.9352 62.4163 28.9792 62.4163Z" fill="white"/>
</svg>
