<svg width="19" height="19" viewBox="0 0 19 19" fill="none" xmlns="http://www.w3.org/2000/svg">
<path d="M11.6471 3.29931L14.8235 6.47578M9.52941 18.1228H18M16.5028 4.79649L4.67521 16.6241C4.38735 16.912 4.02667 17.1162 3.63173 17.2149V17.2149C1.98673 17.6262 0.496683 16.1361 0.907934 14.4911V14.4911C1.00667 14.0962 1.21088 13.7355 1.49874 13.4476L13.3264 1.62002C13.7235 1.22302 14.262 1 14.8235 1C15.3851 1 15.9236 1.22302 16.3207 1.62002L16.5028 1.80214C16.8998 2.19925 17.1228 2.73779 17.1228 3.29931C17.1228 3.86084 16.8998 4.39937 16.5028 4.79649Z" stroke="#F3F3F3" stroke-width="1.33257" stroke-linecap="round" stroke-linejoin="round"/>
</svg>
