<svg width="23" height="18" viewBox="0 0 23 18" fill="none" xmlns="http://www.w3.org/2000/svg">
<path d="M21.2423 11.9046C21.6434 12.3029 21.6438 12.9516 21.2431 13.3504L20.883 13.7088C20.2842 14.3048 20.2842 15.2739 20.883 15.8699L21.244 16.2292C21.6446 16.6279 21.6453 17.2762 21.2457 17.6758V17.6758C20.846 18.0755 20.1978 18.0747 19.799 17.6741L19.4397 17.3131C18.8438 16.7144 17.8746 16.7144 17.2787 17.3131L16.9202 17.6733C16.5214 18.0739 15.8728 18.0736 15.4744 17.6724V17.6724C15.0788 17.2739 15.0799 16.6305 15.477 16.2334L15.8399 15.8705C16.437 15.2734 16.437 14.3053 15.8399 13.7082L15.4778 13.3461C15.0807 12.949 15.0807 12.3051 15.4778 11.908V11.908C15.875 11.5109 16.5188 11.5109 16.916 11.908L17.278 12.2701C17.8752 12.8672 18.8432 12.8672 19.4404 12.2701L19.8033 11.9071C20.2004 11.5101 20.8438 11.5089 21.2423 11.9046V11.9046ZM11.2195 4.5898C9.52639 4.5898 8.15965 5.95654 8.15965 7.64967C8.15965 9.34279 9.52639 10.7095 11.2195 10.7095C12.9126 10.7095 14.2794 9.34279 14.2794 7.64967C14.2794 5.95654 12.9126 4.5898 11.2195 4.5898ZM11.2195 13.2594C8.38696 13.2594 5.74916 12.0687 3.88556 10.0653C2.62138 8.70635 2.62052 6.59274 3.88457 5.23363C4.48274 4.59047 5.16578 4.02568 5.91827 3.55633C7.50856 2.56441 9.34524 2.03857 11.2195 2.03857C13.0938 2.03857 14.9305 2.56441 16.5208 3.55633C18.0188 4.49071 19.2416 5.80337 20.0675 7.35951C20.1639 7.54107 20.1642 7.75825 20.0679 7.9398V7.9398C19.8442 8.36118 20.0724 8.9046 20.5202 9.06913C20.5986 9.09794 20.6762 9.12836 20.753 9.16041C21.1759 9.33704 21.6884 9.22301 21.9016 8.81726C22.0071 8.61659 22.1072 8.4121 22.202 8.20412C22.3627 7.8517 22.3638 7.44701 22.2039 7.09423C20.3085 2.91199 16.1058 0 11.2195 0C6.96109 0 3.22182 2.21176 1.07657 5.54853C0.254872 6.82662 0.254872 8.47271 1.07657 9.7508C3.22182 13.0876 6.96109 15.2993 11.2195 15.2993C11.4194 15.2993 11.6161 15.2993 11.8114 15.2904C12.0617 15.2789 12.2395 15.0399 12.2395 14.7894V14.7894C12.2395 14.6571 12.244 14.526 12.2528 14.3961C12.293 13.8028 11.8142 13.2594 11.2195 13.2594V13.2594Z" fill="#F3F3F3"/>
</svg>
