<svg width="176" height="35" viewBox="0 0 176 35" fill="none" xmlns="http://www.w3.org/2000/svg">
<path fill-rule="evenodd" clip-rule="evenodd" d="M13.7487 0.178488C13.4317 0.254956 12.9994 0.409043 12.788 0.52067C12.5767 0.632489 12.0389 0.784271 11.5928 0.858241C11.1469 0.932019 10.5849 1.14567 10.344 1.3328C10.1032 1.52013 9.58869 1.77681 9.20098 1.90323C8.81307 2.02965 8.39192 2.25829 8.26492 2.41141C8.13773 2.56454 7.9529 2.68981 7.85396 2.68981C7.33521 2.68981 4.68978 5.07682 3.59541 6.5324C1.90756 8.77704 1.22607 10.0568 0.600501 12.156C0.0269956 14.0812 0.00662978 14.2579 0.000289515 17.3637C-0.00489797 19.8508 0.0571599 20.5138 0.387046 21.4929C0.603191 22.1343 0.77995 22.7608 0.77995 22.8853C0.77995 23.2557 2.0872 25.8591 2.40632 26.124C2.56848 26.2585 2.70124 26.4497 2.70124 26.5486C2.70124 27.0516 5.4608 30.1165 6.6226 30.904C7.03568 31.1841 7.59766 31.5643 7.87144 31.7492C9.32471 32.7308 11.8773 33.6351 14.9015 34.2397C16.3949 34.5383 20.8548 34.3127 22.0102 33.8805C23.5254 33.3133 23.4512 33.4743 23.4512 30.7507C23.4512 28.638 23.4003 28.2228 23.0956 27.8464L22.7399 27.4072L21.5105 27.7341C20.8344 27.9139 19.9352 28.1535 19.5126 28.2666C19.078 28.3829 17.9094 28.4315 16.8227 28.3785C13.6065 28.2213 11.5321 27.2804 9.12489 24.8869C7.6747 23.4448 7.11541 22.4712 6.47236 20.2696C5.77473 17.8813 5.78895 16.1821 6.52538 13.8909C7.18919 11.8252 7.67297 11.0171 9.26419 9.31616C10.4604 8.03754 11.943 7.10571 13.2222 6.82866C13.5667 6.75411 14.0855 6.57851 14.375 6.43844C15.1143 6.08089 17.3928 5.91739 18.648 6.13181C19.9704 6.35794 21.6127 6.95028 22.0738 7.36758C22.5201 7.77163 22.948 7.77163 23.2837 7.36777C23.6543 6.92165 23.7575 2.01582 23.4099 1.35662C23.2608 1.07362 22.7446 0.715874 22.1063 0.453041C21.142 0.05591 20.7554 0.0188283 17.6873 0.0286269C15.8381 0.0345829 14.0657 0.102021 13.7487 0.178488ZM38.6523 0.488969C37.8724 0.748343 37.0843 0.960646 36.901 0.960646C36.7177 0.960646 36.3617 1.12165 36.1096 1.31839C35.8576 1.51532 35.4353 1.74012 35.1711 1.81793C33.7109 2.24887 30.0143 5.44859 28.7816 7.34894C28.4562 7.85079 28.1232 8.26156 28.0419 8.26156C27.7585 8.26156 26.7328 10.6768 26.2467 12.4884C25.8209 14.0752 25.7569 14.7046 25.7569 17.3059C25.7568 20.5476 26.0619 22.078 27.1799 24.4411C27.4538 25.0202 27.678 25.5897 27.678 25.7063C27.678 25.8229 27.7951 25.9874 27.9382 26.0719C28.0813 26.1565 28.3042 26.427 28.4335 26.6731C28.7336 27.2445 29.0839 27.6831 30.2718 28.975C31.1391 29.9184 33.2602 31.7013 33.5149 31.7013C33.571 31.7013 33.9355 31.9175 34.3248 32.1817C34.714 32.4458 35.1649 32.662 35.3269 32.662C35.4887 32.662 35.7577 32.7851 35.9244 32.9358C36.0914 33.0862 36.7465 33.3354 37.3806 33.4895C38.0146 33.6434 39.089 33.9181 39.768 34.1001C40.7607 34.366 41.5696 34.4144 43.8988 34.3477C46.9818 34.2595 48.7982 33.8868 50.8323 32.9252C51.3622 32.6748 51.8564 32.4698 51.9303 32.4698C52.0043 32.4698 52.4354 32.2074 52.8883 31.8865C53.3411 31.5657 54.0142 31.0955 54.384 30.8415C55.6745 29.956 57.7351 27.7707 58.5557 26.4178C59.0456 25.6099 60.34 22.9056 60.34 22.6897C60.34 22.5654 60.5222 22.2173 60.7446 21.9162C61.1325 21.3917 61.1454 21.2099 61.0545 17.5531C60.9777 14.4654 60.8824 13.4623 60.5552 12.2963C59.501 8.54053 57.108 5.37001 53.3417 2.739C52.6998 2.29057 52.0967 1.92302 52.0016 1.92245C51.9065 1.92187 51.3878 1.71091 50.8488 1.45365C50.3099 1.19658 49.1214 0.764291 48.2078 0.493004C46.704 0.0466878 46.2397 0.000768165 43.3085 0.00864547C40.3968 0.0163306 39.9274 0.0647472 38.6523 0.488969ZM102.263 0.230555C101.926 0.566974 101.947 4.49352 102.287 4.77557C102.448 4.90967 103.942 5.00612 106.37 5.03917L110.198 5.09143L110.247 19.4829C110.282 29.726 110.358 33.9489 110.511 34.1327C110.818 34.503 115.726 34.503 116.033 34.1327C116.185 33.9489 116.261 29.726 116.297 19.4829L116.346 5.09143L120.82 4.99536C124.515 4.91601 125.326 4.84915 125.476 4.6111C125.576 4.4526 125.659 3.49329 125.661 2.47943C125.664 0.935093 125.607 0.584265 125.313 0.317974C124.994 0.0297798 123.911 0 113.727 0C105.246 0 102.437 0.0564861 102.263 0.230555ZM130.015 0.178488C129.608 0.261872 129.206 0.441513 129.122 0.577349C128.83 1.04883 128.769 3.22412 128.743 13.8982L128.717 24.6264L129.298 26.3031C130.071 28.5368 130.685 29.5896 131.98 30.9038C133.486 32.4314 134.654 33.1632 136.64 33.823C138.098 34.3074 138.647 34.3911 140.362 34.3911C143.765 34.3911 146.377 33.3046 148.743 30.904C149.943 29.6865 150.957 27.9953 151.576 26.1768C151.977 25.0004 151.986 24.7197 151.986 12.7993C151.986 3.29156 151.933 0.580231 151.746 0.426719C151.038 -0.152935 146.773 -0.056486 146.478 0.545647C146.392 0.721061 146.278 6.0953 146.224 12.4884C146.128 23.8907 146.118 24.1293 145.711 25.0106C144.638 27.3312 142.54 28.5915 140.112 28.3738C137.89 28.1744 136.278 27.1167 135.375 25.2669C134.827 24.1445 134.809 24.0148 134.661 19.9834C134.577 17.7105 134.52 12.4091 134.533 8.20277C134.551 2.50902 134.499 0.49627 134.328 0.325467C134.058 0.0545648 131.109 -0.0459187 130.015 0.178488ZM155.771 0.134875C155 0.200967 154.82 0.292613 154.667 0.695893C154.377 1.4573 154.423 33.8697 154.714 34.1606C154.995 34.4415 159.619 34.4784 160.055 34.2032C160.296 34.0513 160.359 33.1463 160.439 28.6826L160.535 23.3437L162.919 23.4025C165.063 23.4555 165.44 23.5193 166.666 24.0375C168.375 24.7601 168.977 25.2827 169.571 26.5592C170.011 27.5037 170.042 27.7809 170.044 30.7503C170.045 32.965 170.116 34 170.276 34.1606C170.611 34.4957 175.235 34.4768 175.697 34.1385C176.015 33.9064 176.037 33.5719 175.968 30.0557C175.908 27.027 175.828 26.105 175.586 25.6493C175.418 25.3322 175.215 24.7703 175.135 24.4004C174.975 23.6519 174.225 22.4795 173.238 21.4324C172.28 20.4174 172.281 20.1713 173.242 19.2075C173.703 18.7459 174.081 18.2671 174.081 18.1439C174.081 18.0206 174.258 17.6945 174.474 17.4192C174.691 17.1439 175.096 16.2893 175.374 15.52C175.811 14.3104 175.881 13.8103 175.888 11.816C175.896 9.82453 175.828 9.30098 175.389 7.97336C174.685 5.84304 174.088 4.86145 172.565 3.33421C171.299 2.06462 170.386 1.48996 168.125 0.540076C167.114 0.11547 166.843 0.0952961 161.88 0.0760832C159.027 0.0649397 156.278 0.0914535 155.771 0.134875ZM69.2971 1.06113C69.1451 1.21291 68.9601 1.70649 68.8857 2.15761C68.8116 2.60892 68.6254 3.28061 68.4721 3.65046C68.319 4.02031 68.0769 4.88489 67.9343 5.57175C67.7919 6.25861 67.5416 7.16642 67.3783 7.58911C67.215 8.01179 67.0776 8.63775 67.073 8.97993C67.0684 9.3223 66.8918 10.0572 66.6805 10.6128C66.4693 11.1687 66.2415 12.0559 66.174 12.5843C66.1068 13.1128 65.9304 13.7851 65.7821 14.0783C65.6339 14.3715 65.4257 15.1064 65.3194 15.7114C65.2132 16.3164 64.9678 17.2004 64.7744 17.6759C64.5807 18.1514 64.3646 19.001 64.2938 19.5638C64.2233 20.1265 63.9964 21.0159 63.7897 21.5402C63.5832 22.0645 63.4102 22.7279 63.4056 23.0146C63.401 23.3012 63.2637 23.8817 63.1003 24.3044C62.937 24.727 62.6863 25.6348 62.5434 26.3217C62.4002 27.0086 62.1551 27.9308 61.9983 28.3712C61.8415 28.8113 61.6582 29.5894 61.5908 30.1003C61.5233 30.611 61.2832 31.6181 61.057 32.3382C60.4347 34.3208 60.3733 34.2845 64.4664 34.3477C66.6628 34.3815 67.9662 34.3277 68.1241 34.1967C68.2588 34.0847 68.4271 33.672 68.498 33.2795C68.5687 32.887 68.7829 32.0472 68.9739 31.4131C69.1649 30.7791 69.382 29.6552 69.4564 28.9155C69.5309 28.1758 69.7121 27.1383 69.8591 26.6099C70.0062 26.0815 70.2543 24.7847 70.4105 23.728C70.5665 22.6713 70.8286 21.4284 70.9928 20.9659C71.1571 20.5037 71.2914 19.7615 71.2914 19.3169C71.2914 18.8723 71.3446 18.4554 71.4095 18.3904C71.5711 18.2288 72.4442 18.8202 72.444 19.0909C72.4438 19.2108 72.8642 20.1736 73.3781 21.2303C73.8919 22.287 74.4143 23.3677 74.5388 23.6319C74.6633 23.8961 75.0185 24.5445 75.328 25.0729C75.6375 25.6012 76.0643 26.3793 76.2762 26.802C76.4881 27.2247 76.7479 27.7002 76.8537 27.8587C76.9594 28.0173 77.1759 28.4495 77.335 28.8194C77.4939 29.1892 77.7075 29.6215 77.81 29.78C78.0186 30.1034 78.3946 30.8391 78.9493 32.0093C79.1549 32.4429 79.6023 33.1158 79.9439 33.5048C80.5307 34.1731 80.5845 34.1944 80.9186 33.892C81.1132 33.716 81.3284 33.3888 81.3968 33.165C81.4652 32.9411 81.6187 32.6395 81.7378 32.4948C81.9357 32.2545 83.2632 29.8892 84.1239 28.243C84.3172 27.8732 84.5783 27.3976 84.7039 27.1863C84.8296 26.9749 85.0188 26.5859 85.1243 26.3217C85.2298 26.0575 85.572 25.4091 85.8846 24.8807C86.1972 24.3524 86.5416 23.7039 86.6504 23.4398C86.7589 23.1756 86.9772 22.7433 87.1355 22.4791C87.2938 22.2149 87.5632 21.6962 87.7342 21.3263C87.905 20.9565 88.155 20.5242 88.2896 20.3657C88.4243 20.2072 88.6355 19.7624 88.759 19.3772C88.9021 18.9311 89.1344 18.6377 89.3994 18.5683C89.628 18.5086 89.8409 18.4853 89.8722 18.5168C89.9037 18.5484 90.0136 19.2383 90.1166 20.0502C90.2196 20.8622 90.4307 21.9786 90.5858 22.5312C90.7408 23.0838 90.9235 24.0546 90.9917 24.6886C91.0599 25.3226 91.2726 26.4034 91.4642 27.0902C91.6557 27.7771 91.8692 28.9644 91.9384 29.7285C92.0723 31.211 92.7027 33.7421 93.0383 34.1468C93.344 34.5151 99.7069 34.4922 100.215 34.121C100.571 33.8603 100.573 33.8186 100.256 32.9202C100.076 32.4084 99.8011 31.4275 99.6452 30.7407C99.2575 29.0302 98.615 26.5578 98.3468 25.7453C98.2248 25.3755 97.9778 24.3812 97.7977 23.5358C97.4135 21.7312 96.942 19.8018 96.4597 18.0602C96.2695 17.3733 95.9844 16.2926 95.8261 15.6585C95.668 15.0245 95.0906 12.7766 94.5431 10.6632C93.9957 8.54975 93.4291 6.21538 93.284 5.47568C93.139 4.73599 92.8214 3.52557 92.5784 2.78587C92.0615 1.21349 91.5912 0.995614 91.0505 2.07865C90.8753 2.42947 90.5942 2.86849 90.4261 3.05447C90.2578 3.24045 90.1201 3.50886 90.1201 3.65103C90.1201 3.99302 88.9306 6.30414 86.781 10.1385C84.9454 13.4125 84.5948 14.0427 83.6714 15.7265C83.3611 16.2922 82.8733 17.1568 82.5874 17.6478C82.3015 18.1387 81.9392 18.8068 81.782 19.1322C81.6251 19.4575 81.3618 19.8356 81.1972 19.9722C81.0325 20.1088 80.8979 20.3686 80.8979 20.5494C80.8979 20.7302 80.8439 20.9319 80.778 20.9978C80.6106 21.1653 79.8396 19.9855 79.5572 19.1295C79.4279 18.738 79.2012 18.371 79.0532 18.3143C78.9055 18.2577 78.7844 18.0596 78.7844 17.8744C78.7844 17.689 78.5694 17.2205 78.3066 16.8332C78.0436 16.4459 77.7765 15.9214 77.7129 15.6678C77.6491 15.414 77.432 15.057 77.2301 14.8745C77.0284 14.6917 76.8631 14.4028 76.8631 14.2324C76.8631 14.0619 76.647 13.6045 76.3828 13.2156C76.1186 12.8269 75.9025 12.4248 75.9025 12.3224C75.9025 12.2198 75.3726 11.1129 74.7251 9.86257C74.0775 8.6122 73.3864 7.27036 73.1894 6.88092C72.9925 6.49128 72.7504 6.12258 72.6517 6.06168C72.5529 6.00058 72.3675 5.62766 72.2393 5.23283C72.1114 4.83801 71.858 4.29889 71.6764 4.03471C71.4949 3.77054 71.2691 3.33825 71.1748 3.07407C70.9083 2.32784 70.0685 0.977362 69.808 0.87611C69.6788 0.825964 69.4491 0.909155 69.2971 1.06113ZM46.7949 6.51991C47.5346 6.75565 48.6028 7.1791 49.1687 7.46096C50.4231 8.08576 52.7492 10.3344 53.2549 11.4115C53.4585 11.8453 53.7429 12.4164 53.8866 12.6805C54.195 13.2473 54.5344 14.2068 54.8044 15.2743C55.0841 16.3815 54.8541 19.5009 54.4076 20.6539C53.5016 22.9936 52.1672 24.8598 50.5781 26.0097C48.7114 27.3606 48.6063 27.4051 45.2579 28.2718C44.1024 28.571 41.2451 28.3585 39.5901 27.8505C36.2703 26.8312 33.4381 23.9952 32.4995 20.75C32.362 20.2744 32.1693 19.7868 32.0713 19.6665C31.9733 19.5461 31.8913 18.5455 31.8889 17.4428C31.8857 15.8047 31.9727 15.1771 32.3656 14.0112C33.7042 10.0386 36.0835 7.62196 39.6975 6.56467C41.6009 6.00769 41.8003 5.98175 43.7208 6.0392C44.8542 6.07321 45.9134 6.23882 46.7949 6.51991ZM166.299 6.54604C168.706 7.71687 169.458 8.79453 169.465 11.0809C169.474 13.982 168.575 15.7337 166.513 16.8334C165.567 17.3376 165.098 17.4519 163.539 17.5591C162.521 17.629 161.407 17.6298 161.064 17.561L160.439 17.4357V11.6767V5.91739L162.889 5.99808C164.992 6.06725 165.475 6.14487 166.299 6.54604Z" fill="black"/>
</svg>
