<svg width="108" height="108" viewBox="0 0 108 108" fill="none" xmlns="http://www.w3.org/2000/svg">
<path fill-rule="evenodd" clip-rule="evenodd" d="M63 13.5C63 11.0147 65.0147 9 67.5 9H85.5C89.0804 9 92.5142 10.4223 95.0459 12.9541C97.5777 15.4858 99 18.9196 99 22.5V85.5C99 89.0804 97.5777 92.5142 95.0459 95.0459C92.5142 97.5777 89.0804 99 85.5 99H67.5C65.0147 99 63 96.9853 63 94.5C63 92.0147 65.0147 90 67.5 90H85.5C86.6935 90 87.8381 89.5259 88.682 88.682C89.5259 87.8381 90 86.6935 90 85.5V22.5C90 21.3065 89.5259 20.1619 88.682 19.318C87.8381 18.4741 86.6935 18 85.5 18H67.5C65.0147 18 63 15.9853 63 13.5Z" fill="#FFD121"/>
<path fill-rule="evenodd" clip-rule="evenodd" d="M41.818 28.318C43.5754 26.5607 46.4246 26.5607 48.182 28.318L70.682 50.818C72.4393 52.5754 72.4393 55.4246 70.682 57.182L48.182 79.682C46.4246 81.4393 43.5754 81.4393 41.818 79.682C40.0607 77.9246 40.0607 75.0754 41.818 73.318L61.136 54L41.818 34.682C40.0607 32.9246 40.0607 30.0754 41.818 28.318Z" fill="#464646"/>
<path fill-rule="evenodd" clip-rule="evenodd" d="M9 54C9 51.5147 11.0147 49.5 13.5 49.5H67.5C69.9853 49.5 72 51.5147 72 54C72 56.4853 69.9853 58.5 67.5 58.5H13.5C11.0147 58.5 9 56.4853 9 54Z" fill="#464646"/>
</svg>
