<svg width="40" height="40" viewBox="0 0 40 40" fill="none" xmlns="http://www.w3.org/2000/svg">
<path d="M10.7257 2.21448C12.5041 1.24049 15.1867 0.385476 17.3234 0.111898C18.4509 -0.0325597 21.3713 -0.0383109 22.6555 0.10141C24.644 0.317701 27.5748 0.99285 28.878 1.53482C29.0797 1.61875 29.188 1.67342 29.2117 1.72991C29.3475 1.72477 29.5582 1.85079 29.5582 2.00552C29.5582 2.36683 29.3638 2.38183 28.5683 2.08231C27.5155 1.68582 25.4708 1.15975 23.8633 0.871736C22.0674 0.550006 18.3366 0.51922 16.7025 0.812758C15.5259 1.02397 14.1378 1.38822 13.5843 1.6309C13.3889 1.71649 13.1799 1.78663 13.12 1.78663C12.8568 1.78663 10.5707 3.00274 9.54797 3.68668C8.41656 4.44347 6.23662 6.47287 5.35059 7.59424C3.96094 9.35288 2.85286 11.2953 1.99356 13.479C1.47392 14.7995 1.17091 15.9323 0.882788 17.6307C0.550795 19.5888 0.551697 23.3717 0.884704 25.3554C1.2715 27.66 2.023 30.3767 2.62304 31.6397C2.87891 32.1783 2.86392 32.4962 2.57985 32.5508C2.37709 32.5899 1.8678 31.859 1.97346 31.6881C2.00492 31.6372 2.00202 31.6705 1.93639 31.6705C1.87076 31.6705 1.81697 31.5894 1.81697 31.4901C1.81697 31.391 1.74378 31.1499 1.65435 30.9545C1.56482 30.7591 1.38551 30.2186 1.25583 29.7534C1.12603 29.2882 0.973905 28.7554 0.917746 28.5693C-0.168898 24.972 -0.306025 19.6798 0.589024 15.8828C1.27646 12.9669 2.73716 9.94379 4.67578 7.42509C5.17332 6.7787 7.1505 4.73949 7.91214 4.08735C8.38611 3.68138 9.95913 2.63432 10.7257 2.21448Z" fill="white"/>
<path d="M32.3048 3.04634C32.3052 3.0453 32.3064 3.04477 32.3084 3.04477C32.3072 3.04552 32.306 3.04604 32.3048 3.04634Z" fill="white"/>
<path d="M11.8401 6.7814C13.8656 5.48332 16.032 4.69393 18.676 4.29067C20.604 3.99668 23.3446 4.28785 25.6667 5.03337C26.9967 5.46031 29.1451 6.59173 30.3601 7.50482C31.3678 8.26229 32.8225 9.67326 33.2181 10.2771C33.3168 10.4277 33.8404 10.8201 34.3817 11.1493C35.7026 11.9524 36.4616 12.5477 37.3446 13.4736C38.382 14.5612 38.8465 15.2659 39.2612 16.3808C39.8419 17.9425 39.9955 19.6198 39.8194 22.4798C39.6369 25.4408 39.3447 27.3947 38.8795 28.7647C37.1726 33.7898 32.8497 37.6474 27.3592 39.045C24.2716 39.8309 20.6459 39.8539 17.5483 39.1072C13.4949 38.1302 11.0269 36.545 9.48121 33.9258C8.97104 33.0612 8.35882 31.8619 8.35814 31.7257C8.35781 31.663 8.24289 31.4854 8.10272 31.331C7.85576 31.0589 6.95078 29.8223 6.49429 29.1332C6.37104 28.9471 6.07288 28.3889 5.83166 27.8927C5.59056 27.3965 5.34574 26.896 5.28778 26.7807C5.1387 26.4835 4.62481 24.8925 4.59075 24.6224C4.57508 24.4983 4.53346 24.3207 4.49817 24.2277C4.09693 23.1691 4.00063 19.2104 4.33815 17.6498C4.90842 15.0136 6.34206 11.9957 7.80264 10.3571C7.91518 10.2308 8.12729 9.985 8.3253 9.75551L8.35664 9.71919C8.57702 9.46378 8.81874 9.22784 9.07812 9.01215L9.63029 8.4858C10.002 8.14227 10.2956 7.88721 10.5221 7.69969C10.935 7.35786 11.3888 7.07058 11.8401 6.7814Z" fill="white"/>
<path d="M3.02608 35.329C2.66059 34.9902 2.7163 34.8133 3.2886 34.4941C3.50264 34.3748 3.73483 34.2742 3.80486 34.2706C4.13832 34.2537 4.42938 35.154 4.18535 35.448C3.96296 35.7159 3.37871 35.6561 3.02608 35.329Z" fill="white"/>
<path fill-rule="evenodd" clip-rule="evenodd" d="M17.8772 0.0228776C15.5066 0.348555 14.3078 0.647506 12.5704 1.34634C11.8846 1.62228 11.0219 2.01506 10.6534 2.21928C9.96367 2.60146 8.39212 3.65731 7.90281 4.06723C7.19259 4.6622 5.17244 6.74245 4.66645 7.3999C2.7682 9.86616 1.2068 13.0716 0.629087 15.6884C0.19549 17.6528 0.130534 18.1871 0.341638 18.0566C0.403661 18.0182 0.454407 17.77 0.454407 17.5049C0.454407 17.2398 0.490493 16.9869 0.534473 16.9428C0.578566 16.8987 0.697425 16.4716 0.798579 15.9936C1.0319 14.8907 1.27571 14.0131 1.36874 13.9405C1.40843 13.9095 1.47565 13.7241 1.51805 13.5287C1.56045 13.3331 1.69374 12.9798 1.81418 12.7436C1.93462 12.5073 2.03318 12.2233 2.03318 12.1124C2.03318 12.0014 2.07986 11.9107 2.13704 11.9107C2.1941 11.9107 2.27428 11.7584 2.3151 11.5724C2.35592 11.3863 2.42809 11.2341 2.47534 11.2341C2.52259 11.2341 2.62217 11.0311 2.69648 10.783C2.7708 10.5349 2.87443 10.3319 2.92676 10.3319C2.97897 10.3319 3.05385 10.243 3.09309 10.1346C3.13234 10.026 3.22774 9.83571 3.30499 9.71167C3.5842 9.26352 3.88992 8.80839 3.94867 8.75313C3.98171 8.72212 4.15549 8.46839 4.33491 8.18928C4.51432 7.91018 4.72949 7.64122 4.81316 7.59161C4.89672 7.54199 4.96517 7.44602 4.96517 7.37836C4.96517 7.31059 5.11741 7.10963 5.30348 6.93191C5.48955 6.75407 5.6428 6.57093 5.64404 6.52492C5.64777 6.39028 8.28859 3.90405 8.42798 3.90405C8.50658 3.90405 9.30352 3.29104 9.34434 3.19925C9.36509 3.15267 9.43715 3.11467 9.5047 3.11467C9.57213 3.11467 9.70746 3.04543 9.80534 2.96085C10.248 2.57857 13.1804 1.19759 13.5496 1.19759C13.666 1.19759 13.7612 1.1526 13.7612 1.09757C13.7612 1.04265 14.1036 0.934391 14.5224 0.857144C14.9411 0.78001 15.3343 0.677052 15.3963 0.628448C15.4583 0.579957 15.8781 0.503838 16.3291 0.459407C16.7802 0.414976 17.1765 0.334459 17.2098 0.280668C17.2882 0.15369 22.6377 0.152111 22.7162 0.278976C22.7489 0.331978 23.2381 0.41024 23.8033 0.452866C24.3683 0.495606 24.9155 0.577025 25.019 0.633974C25.1225 0.690922 25.5751 0.794782 26.0248 0.864925C26.4745 0.935067 26.8424 1.03171 26.8424 1.07964C26.8424 1.12768 27.0783 1.19929 27.3667 1.23876C27.655 1.27834 27.9468 1.35243 28.0151 1.40351C28.1483 1.5032 29.0021 1.76471 29.1672 1.75648C29.4709 1.74125 28.2834 1.28792 27.0115 0.933489C24.5797 0.255859 23.1483 0.0524231 20.5273 0.0120517C19.2558 -0.00757013 18.0633 -0.00272098 17.8772 0.0228776ZM17.2028 0.484893C16.8939 0.512747 16.6148 0.574319 16.5825 0.621795C16.5504 0.66927 16.0956 0.767718 15.5719 0.840454C15.0483 0.91319 14.5916 1.01705 14.557 1.07129C14.5225 1.12553 14.2788 1.20594 14.0155 1.25003C13.7523 1.29401 13.5082 1.37633 13.4732 1.43294C13.4382 1.48955 13.3315 1.5359 13.2362 1.5359C13.1409 1.5359 12.6886 1.71351 12.2311 1.93059C11.7737 2.14767 11.3472 2.32529 11.2834 2.32529C11.2197 2.32529 11.1675 2.37209 11.1675 2.42926C11.1675 2.48655 10.9801 2.59514 10.7509 2.67081C10.5219 2.74637 10.2808 2.85282 10.2153 2.90717C9.66494 3.36412 9.53593 3.45456 9.34975 3.51365C9.23315 3.55064 9.13763 3.62822 9.13763 3.68607C9.13763 3.74392 9.06523 3.79128 8.97671 3.79128C8.88807 3.79128 8.72321 3.90575 8.61021 4.04558C8.4971 4.18541 8.27777 4.38276 8.12271 4.48414C7.67784 4.77497 6.08621 6.36434 5.37238 7.23075C4.41362 8.39452 4.40144 8.41031 4.39952 8.50064C4.39851 8.54654 4.24525 8.75696 4.05885 8.96852C3.87244 9.17996 3.69021 9.47169 3.65378 9.61694C3.61736 9.76207 3.54564 9.88082 3.49455 9.88082C3.44347 9.88082 3.36599 9.99494 3.32246 10.1346C3.27882 10.274 3.20733 10.4137 3.16335 10.4447C3.11948 10.4757 2.89214 10.907 2.65825 11.4032C2.42426 11.8994 2.13726 12.5004 2.02032 12.739C1.90338 12.9773 1.80764 13.2662 1.80764 13.3806C1.80764 13.4952 1.76129 13.6175 1.70468 13.6525C1.64807 13.6876 1.56744 13.9189 1.5256 14.1666C1.48376 14.4144 1.41046 14.6171 1.36265 14.6171C1.27954 14.6171 1.06787 15.5103 0.721444 17.3236C0.170905 20.2044 0.301718 23.9255 1.07419 27.36C1.16485 27.7632 1.24018 28.2072 1.24142 28.3468C1.24278 28.4864 1.29285 28.6005 1.35273 28.6005C1.41261 28.6005 1.49527 28.8542 1.53631 29.1644C1.57747 29.4745 1.64378 29.7282 1.6837 29.7282C1.72374 29.7282 1.82309 30.0151 1.90451 30.3657C1.98604 30.7162 2.09666 31.0841 2.15023 31.1833C2.42144 31.6841 2.61337 32.2162 2.56962 32.3458C2.54267 32.4256 2.45144 32.3008 2.36697 32.0682C2.28251 31.8356 2.17797 31.6453 2.13455 31.6453C2.09114 31.6453 1.99472 31.3914 1.92029 31.0811C1.84586 30.7707 1.74403 30.4916 1.69408 30.4607C1.64412 30.4298 1.56834 30.151 1.52571 29.841C1.48309 29.531 1.40663 29.2516 1.35577 29.2203C1.30502 29.1888 1.22789 28.9477 1.18447 28.6845C1.14106 28.4212 1.06043 28.1498 1.00528 28.0812C0.950141 28.0127 0.849099 27.5307 0.780761 27.0099C0.712423 26.4892 0.611044 26.015 0.555449 25.9561C0.499853 25.8972 0.454407 25.5843 0.454407 25.2606C0.454407 24.8976 0.401631 24.6548 0.316716 24.6265C0.212743 24.5918 0.178123 23.8257 0.175754 21.5108C0.17395 19.8224 0.135721 18.6083 0.0908394 18.8127C0.0459572 19.017 0.00513465 20.1485 0.000285572 21.3269C-0.0105403 23.9273 0.286606 26.3574 0.862293 28.375C1.31348 29.9563 1.50496 30.5911 1.59394 30.7995C1.73129 31.1211 1.89334 31.5791 1.89345 31.6453C1.89368 31.8742 2.3716 32.491 2.54876 32.491C2.8512 32.491 2.87128 32.1991 2.60807 31.6287C2.48346 31.3587 2.20391 30.6016 1.98671 29.9463C0.266646 24.7553 0.12467 19.0941 1.59935 14.5044C2.35445 12.1544 3.7529 9.5601 5.33788 7.56905C6.24668 6.42749 8.41117 4.41557 9.53864 3.66453C11.342 2.46331 13.0334 1.67066 14.7761 1.21C16.7471 0.689005 17.5627 0.594392 20.0762 0.595632C22.0922 0.596647 22.7383 0.6395 23.9104 0.850152C25.5192 1.13918 27.0574 1.52925 28.3648 1.97965C28.861 2.15061 29.3304 2.26868 29.4079 2.24206C29.582 2.18229 29.5961 1.76144 29.424 1.76144C29.3553 1.76144 29.3284 1.83756 29.3641 1.93059C29.3998 2.02363 29.401 2.09975 29.367 2.09975C29.2558 2.09975 27.5805 1.5288 27.3946 1.42764C27.2952 1.37351 26.9653 1.29311 26.6616 1.24913C26.3579 1.20515 26.0586 1.12926 25.9966 1.08054C25.9346 1.03182 25.4525 0.928414 24.9253 0.850716C24.3981 0.773131 23.9002 0.658445 23.8189 0.595858C23.6676 0.479254 18.2697 0.388814 17.2028 0.484893ZM31.9264 1.20921C31.6776 1.61845 31.5307 2.44516 31.6427 2.80602C31.6858 2.94473 31.8175 3.19519 31.9354 3.36265L32.1496 3.66701L31.7233 3.73659C30.9928 3.8559 30.1804 4.03791 29.9079 4.14324C29.7077 4.22071 29.6551 4.31645 29.6824 4.55338C29.7394 5.04877 30.2971 5.23924 32.3877 5.47764C34.3518 5.70148 34.5657 5.75572 35.2002 6.19067C36.0343 6.76264 36.9777 6.8621 37.4567 6.42873C37.8253 6.09505 37.7033 5.85338 36.7664 5.06118L35.8645 4.29875L35.8643 3.2218C35.8639 2.08385 35.7835 1.87421 35.3477 1.87421C35.038 1.87421 34.9087 2.03366 34.73 2.6354C34.6518 2.89894 34.5323 3.11422 34.4647 3.11366C34.3969 3.11309 34.1034 2.89736 33.8122 2.63439C33.4372 2.29563 33.2471 2.01754 33.1605 1.68104C32.9487 0.858159 32.2925 0.607248 31.9264 1.20921ZM32.757 1.34916C32.9152 1.55665 33.0447 1.83576 33.0447 1.96939C33.0447 2.2274 33.1712 2.37231 33.9463 3.0019C34.5411 3.48512 34.6235 3.52053 34.6235 3.29318C34.6235 3.19496 34.6742 3.11467 34.7362 3.11467C34.7983 3.11467 34.849 3.0107 34.849 2.88349C34.849 2.50707 35.1795 1.96894 35.3862 2.00874C35.6383 2.05723 35.7266 2.4367 35.7399 3.52774L35.7512 4.44839L36.2732 4.88097C36.5604 5.11903 36.8761 5.40242 36.9749 5.51101C37.0737 5.61961 37.2193 5.70836 37.2986 5.70836C37.383 5.70836 37.4427 5.84628 37.4427 6.04159C37.4427 6.3331 37.3933 6.38407 37.048 6.4488C36.4847 6.55447 35.9835 6.43279 35.3641 6.04002C35.0674 5.8518 34.6768 5.66833 34.4961 5.63213C34.3155 5.59604 34.1404 5.52229 34.107 5.46828C34.0736 5.41426 33.7974 5.37005 33.4932 5.37005C32.6666 5.37005 30.6357 5.12952 30.513 5.0172C30.4542 4.96318 30.3164 4.91898 30.2069 4.91898C29.9482 4.91898 29.7072 4.49 29.8727 4.32446C29.9384 4.25883 30.2738 4.1818 30.6182 4.15327C30.9628 4.12474 31.272 4.05697 31.3055 4.00273C31.3391 3.94848 31.5635 3.90405 31.8042 3.90405C32.3494 3.90405 32.4435 3.76456 32.1661 3.36761C31.8553 2.92308 31.7907 2.54034 31.9152 1.88368C32.0173 1.34543 32.2054 0.986377 32.3905 0.976341C32.4339 0.973973 32.5988 1.14177 32.757 1.34916ZM32.2553 1.47952C32.2553 1.57255 32.3314 1.64867 32.4245 1.64867C32.5253 1.64867 32.5936 1.75242 32.5936 1.90545C32.5936 2.17902 32.8634 2.63551 33.1518 2.85C33.5039 3.11174 36.3824 5.51226 36.7429 5.84459C36.9472 6.03302 37.1478 6.15357 37.1887 6.11264C37.2561 6.04531 36.3911 5.14451 36.2593 5.14451C36.2052 5.14451 35.7532 4.77677 35.4622 4.49609C35.3819 4.41862 35.2805 4.35513 35.2368 4.35513C35.1931 4.35513 35.0752 4.26627 34.9749 4.15778C34.8745 4.0493 34.4625 3.68652 34.0595 3.35171C33.0741 2.53346 32.8557 2.26067 32.7735 1.74644C32.7196 1.40983 32.6526 1.31036 32.4795 1.31036C32.3555 1.31036 32.2553 1.38592 32.2553 1.47952ZM32.0298 2.32461C32.0298 2.83782 32.0733 2.93198 32.5207 3.38577C32.9919 3.8638 33.0021 3.88827 32.7744 3.99878C32.6439 4.06216 32.2835 4.14053 31.9734 4.17301C31.2854 4.24507 30.3241 4.44444 30.2349 4.53364C30.1145 4.65408 30.6028 4.91898 30.945 4.91898C31.131 4.91898 31.5654 4.96848 31.9102 5.02904C32.2551 5.0896 33.0428 5.19278 33.6605 5.25841C34.2784 5.32393 34.8112 5.42136 34.8446 5.47504C34.9315 5.61442 35.981 6.15944 36.1627 6.15944C36.2464 6.15944 36.315 6.21018 36.315 6.27221C36.315 6.33423 36.4419 6.38498 36.5969 6.38498C36.752 6.38498 36.8788 6.33423 36.8788 6.27221C36.8788 6.21018 36.79 6.15932 36.6815 6.15921C36.573 6.1591 36.0782 5.94878 35.582 5.6919C35.0858 5.43512 34.5022 5.18207 34.2852 5.12974C33.9673 5.05317 31.0601 4.70449 30.6202 4.69028C30.5581 4.68825 30.5937 4.63626 30.6991 4.5748C30.8045 4.51335 31.3076 4.41073 31.8169 4.3469C33.2912 4.16196 33.4441 3.98897 32.7064 3.34021C32.2906 2.97461 32.2575 2.90187 32.2564 2.35348C32.2558 2.0278 32.2046 1.76144 32.1425 1.76144C32.0805 1.76144 32.0298 2.01483 32.0298 2.32461ZM35.0635 2.86094C34.8148 3.51342 34.8128 3.76399 35.0551 3.89368C35.1817 3.96145 35.314 4.01682 35.349 4.01682C35.3841 4.01682 35.4128 3.68697 35.4128 3.28382C35.4128 2.50842 35.2658 2.33036 35.0635 2.86094ZM35.3001 3.36276C35.3001 3.7075 35.2662 3.80256 35.1759 3.71223C35.1023 3.6386 35.083 3.44587 35.1284 3.2386C35.2348 2.7546 35.3001 2.80196 35.3001 3.36276ZM18.723 4.26345C16.673 4.54988 14.992 5.07065 13.2537 5.95803C12.4518 6.36738 10.8872 7.35242 10.5264 7.67506C10.453 7.7408 10.044 8.09907 9.61758 8.47121C8.72411 9.251 7.26307 10.9283 6.70791 11.8118C6.09929 12.7801 5.21766 14.6185 4.91026 15.5603C4.60927 16.4824 4.56642 16.7597 4.72509 16.7597C4.77911 16.7597 4.85703 16.506 4.89819 16.1959C4.93924 15.8858 5.0219 15.632 5.08178 15.632C5.14166 15.632 5.19071 15.5299 5.19071 15.4049C5.19071 15.2801 5.23514 15.0897 5.28961 14.982C5.34397 14.8744 5.63547 14.2788 5.93736 13.6586C6.23924 13.0384 6.55003 12.4638 6.62784 12.3819C6.70577 12.2999 6.76948 12.1603 6.76948 12.0718C6.76948 11.9832 6.81165 11.9107 6.86319 11.9107C6.91473 11.9107 7.02896 11.7747 7.11692 11.6083C7.2881 11.2849 7.36975 11.1789 8.18699 10.2191C9.15545 9.08174 9.42113 8.79497 9.60472 8.68908C9.75471 8.60258 10.5562 7.94457 11.1064 7.45628C11.378 7.21518 12.8223 6.38498 12.9701 6.38498C13.033 6.38498 13.0846 6.33626 13.0846 6.27672C13.0846 6.21718 13.2875 6.10768 13.5356 6.03336C13.7837 5.95905 13.9867 5.85947 13.9867 5.81222C13.9867 5.76497 14.1517 5.69054 14.3532 5.64679C14.5547 5.60303 14.7451 5.5356 14.7761 5.49681C14.8912 5.35303 16.9203 4.76832 18.0464 4.55428C19.1904 4.33697 23.6849 4.44941 23.6849 4.69536C23.6849 4.74734 23.9646 4.82493 24.3066 4.86767C24.6485 4.91041 24.9519 4.98359 24.9808 5.03028C25.0097 5.07708 25.3388 5.18308 25.7123 5.26597C26.0858 5.34874 26.3913 5.45136 26.3913 5.49387C26.3913 5.53639 26.5309 5.60405 26.7014 5.64419C27.1274 5.74456 28.6467 6.51432 28.6467 6.62968C28.6467 6.79004 28.4795 6.73614 27.7114 6.32859C27.3024 6.11151 26.8887 5.9339 26.7922 5.9339C26.6958 5.9339 26.6169 5.88541 26.6169 5.8262C26.6169 5.767 26.4266 5.68355 26.194 5.64081C25.9614 5.59807 25.7456 5.52421 25.7144 5.47673C25.6831 5.42926 25.3279 5.32404 24.925 5.24296C24.5221 5.16199 24.1669 5.06186 24.1359 5.02047C23.943 4.76324 19.3405 4.46395 18.8967 4.67968C18.7702 4.74125 18.3246 4.82425 17.9067 4.86417C17.4886 4.90409 17.1128 4.99137 17.0715 5.05825C17.0205 5.14057 17.113 5.15636 17.3588 5.10719C19.1104 4.75693 21.8568 4.74464 23.5157 5.07967C25.4667 5.47369 27.8201 6.45174 29.4775 7.55744C30.3753 8.15636 32.1996 9.74866 32.1009 9.84722C32.0735 9.87462 31.5515 9.7473 30.941 9.56428C30.3303 9.38125 29.4799 9.14917 29.0511 9.04858C28.6223 8.94799 28.0388 8.71682 27.7542 8.53492C27.0012 8.05317 25.1195 7.19635 24.5006 7.05336C24.207 6.98547 23.8653 6.88522 23.7412 6.83041C22.7963 6.41328 19.0152 6.41238 17.6621 6.82895C15.7488 7.41794 15.4978 7.5085 14.4378 7.99182C14.0937 8.14869 12.8244 8.88405 12.7462 8.97179C12.7152 9.00663 12.5918 9.08918 12.4719 9.15538C12.352 9.22157 12.2 9.36107 12.1341 9.46549C11.9743 9.71866 12.1158 9.93145 12.8354 10.5207C13.5056 11.0694 13.5043 11.0719 12.2912 11.5605C10.8003 12.161 10.2436 12.4794 9.58476 13.1077C8.05527 14.5665 6.71152 17.0877 6.0755 19.6917C5.78816 20.8677 5.91311 23.8306 6.31784 25.443C6.37231 25.66 6.47752 26.0914 6.55161 26.4015C6.72832 27.1409 6.97833 27.9896 7.17511 28.5182C7.41407 29.1602 7.37855 29.4033 7.10542 28.9952C6.8147 28.5608 5.80508 26.4883 5.70449 26.1196C5.6622 25.9645 5.58416 25.7362 5.53105 25.6121C5.3434 25.1741 4.98153 23.5698 4.84417 22.5674C4.21244 17.9561 5.87624 13.1128 9.29032 9.62416C10.1221 8.77422 11.9346 7.28713 12.1386 7.28713C12.184 7.28713 12.3011 7.21665 12.399 7.13061C12.7711 6.80358 14.7653 5.87458 15.8474 5.52421C16.4676 5.32348 16.8948 5.15591 16.7966 5.15185C16.4756 5.13865 15.3399 5.39904 15.3399 5.48587C15.3399 5.53244 15.1623 5.60382 14.9452 5.64453C14.7282 5.68524 14.5506 5.767 14.5506 5.8262C14.5506 5.88541 14.4751 5.9339 14.383 5.9339C14.0202 5.9339 11.393 7.44343 11.393 7.65183C11.393 7.6993 11.3222 7.73821 11.2357 7.73821C11.1492 7.73821 10.9589 7.86417 10.8128 8.01821C10.6668 8.17214 10.5039 8.29901 10.4512 8.30014C10.3642 8.30183 8.22567 10.4431 7.9522 10.8023C7.48117 11.4208 6.99502 12.1557 6.99502 12.2492C6.99502 12.3111 6.94766 12.3617 6.8898 12.3617C6.83195 12.3617 6.74907 12.4759 6.70554 12.6155C6.6619 12.7551 6.58961 12.8946 6.54473 12.9256C6.44065 12.9976 5.69051 14.583 5.58428 14.9554C5.54007 15.1105 5.44128 15.3896 5.36471 15.5757C5.13523 16.1331 4.94465 16.7628 4.89176 17.1386C4.86425 17.3334 4.78892 17.645 4.72419 17.831C4.54567 18.3445 4.46944 21.5405 4.61401 22.4546C4.89221 24.2141 5.06035 24.9467 5.3001 25.443C5.34509 25.536 5.44985 25.8786 5.53308 26.2042C5.6163 26.5297 5.72332 26.7962 5.7708 26.7962C5.81827 26.7962 5.89044 26.9738 5.93115 27.1909C5.97186 27.408 6.04122 27.5856 6.08531 27.5856C6.1294 27.5856 6.28457 27.8491 6.43016 28.1713C6.87086 29.1465 7.65573 30.1713 8.96453 31.4805C10.5871 33.1037 11.4246 33.6718 13.7048 34.6964C15.4583 35.4842 18.5714 35.9915 21.0348 35.891C23.3081 35.7982 25.0972 35.4398 27.0115 34.694C28.1162 34.2635 29.8189 33.2706 30.7192 32.5319C31.1547 32.1745 32.2553 31.1045 32.2553 31.0387C32.2553 31.0097 32.3949 30.8406 32.5654 30.6628C32.7359 30.485 32.9517 30.2227 33.0447 30.0797C33.1377 29.9368 33.3027 29.7155 33.4112 29.5877C33.5197 29.4599 33.6085 29.287 33.6085 29.2035C33.6085 29.1199 33.656 29.0516 33.714 29.0516C33.7721 29.0516 33.8837 28.874 33.9622 28.6569C34.0407 28.4398 34.1415 28.2622 34.186 28.2622C34.2307 28.2622 34.3007 28.11 34.3415 27.9239C34.3824 27.7378 34.4521 27.5856 34.4964 27.5856C34.5407 27.5856 34.6331 27.3953 34.7016 27.1627C34.7703 26.9302 34.952 26.3846 35.1054 25.9504C35.629 24.4694 35.7896 23.5502 35.9235 21.2675C35.9994 19.9711 35.8106 17.4423 35.5813 16.6869C35.49 16.3858 35.4148 16.0271 35.4141 15.8896C35.4134 15.7521 35.3428 15.473 35.2572 15.2694C35.1716 15.0657 35.0391 14.6961 34.9628 14.448C34.6345 13.3814 33.2371 10.818 32.9134 10.689C32.8616 10.6683 32.8192 10.5795 32.8192 10.4917C32.8192 10.4038 32.7654 10.3319 32.6997 10.3319C32.6341 10.3319 32.606 10.2903 32.6375 10.2394C32.7285 10.0922 30.2455 7.73821 29.999 7.73821C29.9376 7.73821 29.8872 7.69456 29.8872 7.64111C29.8872 7.58766 29.6596 7.42324 29.3814 7.27563C28.8242 6.98006 28.5816 6.65528 29.0139 6.78373C29.153 6.825 29.3233 6.92988 29.3921 7.0166C29.461 7.10332 29.5537 7.17436 29.598 7.17436C29.6425 7.17436 29.992 7.41174 30.375 7.70178C31.3856 8.46737 32.7932 9.93653 33.921 11.4032C34.1602 11.7143 35.0815 13.7741 35.3585 14.6171C35.5317 15.1443 35.7126 15.6772 35.7605 15.8012C36.1559 16.8248 36.4264 20.7095 36.2199 22.3982C36.0342 23.9166 35.8512 24.9266 35.7406 25.0426C35.6844 25.1015 35.6384 25.2427 35.6384 25.3564C35.6384 25.7319 35.1853 26.9481 34.5979 28.1494C34.2794 28.8007 33.9898 29.3589 33.9544 29.3899C33.9189 29.4209 33.691 29.7504 33.4478 30.1222C33.2047 30.4939 32.5199 31.2875 31.9258 31.8855C29.7298 34.0963 26.9671 35.4336 23.2902 36.0656C22.918 36.1297 21.5733 36.1861 20.3018 36.1912C18.4994 36.1984 17.7912 36.1573 17.0879 36.0045C13.7626 35.2816 11.9484 34.4977 9.93017 32.9116C9.3793 32.4786 8.23548 31.3438 8.23548 31.2303C8.23548 31.1782 8.11978 31.0091 7.97825 30.8548C7.83684 30.7003 7.54499 30.3202 7.32983 30.0101C7.11467 29.7 6.91326 29.4209 6.88225 29.3899C6.67678 29.1844 5.48932 26.7674 5.30326 26.176C5.22522 25.9279 5.12294 25.6741 5.07603 25.6121C5.02911 25.5501 4.95514 25.284 4.91172 25.0206C4.82816 24.5137 4.62687 24.2522 4.62687 24.6505C4.62687 25.311 5.76448 27.9744 6.60303 29.2771C6.78279 29.5562 7.24886 30.1997 7.63904 30.707C8.02911 31.2145 8.34847 31.6712 8.34881 31.722C8.34949 31.84 8.99645 33.0949 9.47188 33.9007C11.0423 36.5618 13.5662 38.1535 17.7645 39.1308C22.7582 40.2932 28.491 39.405 32.3681 36.8683C32.7712 36.6045 33.1524 36.3491 33.215 36.3006C36.1818 34.005 37.8982 31.6789 38.921 28.5671C39.1003 28.0215 39.247 27.454 39.247 27.3058C39.247 27.1576 39.2956 26.9085 39.355 26.7523C39.5481 26.2444 39.8403 22.6155 39.8464 20.6503C39.8545 18.0127 39.5784 16.7341 38.658 15.1444C37.9979 14.0043 36.3653 12.365 35.1306 11.6025C35.0068 11.5259 34.5738 11.2602 34.1687 11.012C33.7319 10.7445 33.2566 10.3309 33.0015 9.9963C31.9687 8.64194 29.7708 6.89706 27.9302 5.97021C25.0772 4.53342 21.5156 3.87327 18.723 4.26345ZM22.9302 6.84665C23.3763 6.91443 23.7894 7.01592 23.8484 7.07219C23.9072 7.12835 24.0772 7.17436 24.226 7.17436C24.3748 7.17436 24.6691 7.25048 24.8801 7.34351C25.091 7.43655 25.454 7.59443 25.6865 7.69434C26.3182 7.96566 27.1168 8.35066 27.1807 8.41471C27.2458 8.47989 27.5926 8.6787 28.2649 9.03618C28.5248 9.17432 28.8814 9.42095 29.0574 9.58413C29.2334 9.7473 29.4101 9.88082 29.4502 9.88082C29.4903 9.88082 29.846 10.2535 30.2408 10.709C31.3263 11.9615 31.4659 12.1321 31.4659 12.2053C31.4659 12.2424 31.5928 12.4235 31.7478 12.6078C31.9029 12.7921 32.0298 13.0151 32.0298 13.1034C32.0298 13.1917 32.0736 13.2639 32.1271 13.2639C32.2837 13.2639 32.8477 14.6199 32.8984 15.1188C32.9923 16.0399 32.1021 16.5535 31.7813 15.7632C31.1793 14.2794 31.0108 14.0518 30.5181 14.0569C29.9801 14.0624 29.7413 14.3078 29.7297 14.8677C29.716 15.5264 30.0976 16.2823 30.747 16.8833C31.6221 17.693 31.8327 17.9592 32.0493 18.5297C32.266 19.1 32.3232 19.862 32.1571 19.9646C32.1031 19.998 32.0303 20.1659 31.9954 20.3378C31.9604 20.5097 31.7636 20.8343 31.5579 21.0593C30.3803 22.3476 30.1788 22.655 30.0518 23.3567C29.9448 23.9483 29.8158 24.1936 29.4134 24.5704C28.9618 24.9934 27.5523 26.0561 26.4043 26.8394C25.3978 27.526 25.0093 27.6111 24.9452 27.1586C24.9101 26.912 25.1775 25.6793 25.3753 25.1754C25.427 25.0434 25.5811 24.631 25.7176 24.2589C25.8542 23.8868 26.0362 23.4224 26.1222 23.2269C26.3604 22.6855 26.3209 21.3269 26.0442 20.5395C25.5139 19.0307 24.3541 17.3787 23.2611 16.5754C22.9345 16.3353 22.2252 15.9856 21.6823 15.7968C20.4733 15.3765 19.8899 15.0762 19.4681 14.6567C18.6832 13.876 18.6865 13.5253 19.4854 12.8102C19.926 12.4159 19.9974 12.2921 19.9843 11.9451C19.9681 11.5123 19.7591 11.2132 19.2723 10.9256C19.106 10.8273 18.8582 10.5483 18.7218 10.3056L18.4737 9.86424L18.7308 9.59067C18.8722 9.44012 19.0551 9.31698 19.1373 9.31698C19.2195 9.31698 19.2869 9.26848 19.2869 9.20928C19.2869 9.15008 19.4684 9.06753 19.6905 9.02592C20.115 8.9463 20.3681 8.58601 20.1713 8.34118C20.0509 8.19131 18.2844 8.26619 18.1084 8.42869C18.0494 8.48305 17.8646 8.52759 17.6975 8.52759C17.5204 8.52759 17.2527 8.65931 17.0558 8.84323C16.7203 9.1565 16.2421 9.93529 16.2421 10.1682C16.2421 10.3166 15.7127 10.8215 15.3756 10.9948C15.0385 11.1679 14.366 11.1538 14.0041 10.9659C13.8394 10.8804 13.5633 10.7438 13.3902 10.6625C13.2172 10.5811 12.8675 10.3224 12.6131 10.0875C12.224 9.72836 12.1732 9.63318 12.293 9.48872C12.3714 9.39422 12.5055 9.31698 12.5908 9.31698C12.6763 9.31698 12.7466 9.27886 12.7469 9.2324C12.7483 9.08208 15.2784 7.73821 15.5602 7.73821C15.6268 7.73821 15.7695 7.69175 15.8772 7.63491C16.3752 7.37216 16.9179 7.17436 17.1405 7.17436C17.2747 7.17436 17.4829 7.12181 17.603 7.05753C18.1803 6.74854 21.4375 6.61965 22.9302 6.84665ZM20.0215 8.5303C20.0608 8.59379 19.8696 8.74445 19.5965 8.86522C19.3235 8.986 18.9772 9.17827 18.827 9.2925C18.6768 9.40674 18.2748 9.56552 17.9336 9.64547C17.5925 9.72542 17.1448 9.83199 16.9387 9.88217C16.6158 9.96089 16.5737 9.94758 16.6348 9.78621C16.7904 9.37437 17.2172 8.86364 17.5061 8.74366C18.1425 8.47944 19.8981 8.33047 20.0215 8.5303ZM4.47305 17.0699C4.14715 18.2141 3.98307 21.5812 4.20252 22.6237C4.24819 22.8408 4.31878 23.2863 4.35938 23.6136C4.39986 23.941 4.48433 24.2405 4.5468 24.2791C4.62145 24.3253 4.63239 24.1407 4.5786 23.7403C4.30412 21.6963 4.30299 18.9909 4.5759 17.3518C4.65438 16.8802 4.583 16.6842 4.47305 17.0699ZM10.2817 20.1516C10.826 20.4429 10.969 20.6381 11.432 21.7216C11.5873 22.0849 11.8139 22.3679 12.4791 23.0291C12.8595 23.4071 13.3114 23.9654 13.4838 24.2696C14.0616 25.2902 14.5427 26.2614 14.6736 26.6714C14.745 26.8951 14.8479 27.1264 14.9025 27.1853C14.957 27.2441 15.0016 27.3633 15.0016 27.4501C15.0016 27.7468 15.7969 29.4338 16.1021 29.7846C16.5011 30.2431 16.8903 30.4048 17.595 30.4048C17.9713 30.4048 18.447 30.475 18.6521 30.5607C19.1922 30.7863 19.7368 31.4087 19.7374 31.8012C19.738 32.1983 19.5061 32.4106 18.4109 33.0152L17.5795 33.4741L16.8826 33.223C15.7015 32.7975 12.7368 31.3047 12.4079 30.9697C12.3769 30.9381 12.0657 30.7199 11.7162 30.4847C10.8062 29.8721 9.36317 28.4451 9.36317 28.1575C9.36317 28.1014 9.31953 28.0386 9.26619 28.0178C9.08813 27.9488 8.15496 26.1937 7.89717 25.443C7.82263 25.2259 7.72069 24.9468 7.67062 24.8227C7.41091 24.1796 7.21999 22.9028 7.22022 21.8115L7.22056 20.6045L7.58706 20.4402C8.50759 20.0273 9.79248 19.8898 10.2817 20.1516ZM33.8763 23.5179C34.0351 23.6769 34.1153 23.9409 34.1499 24.4198C34.2523 25.8356 33.9167 26.3225 33.3381 25.5972C32.9868 25.157 32.939 25.1454 32.636 25.4277C32.3 25.7407 31.9683 25.894 31.6272 25.894C31.3295 25.894 31.3242 25.882 31.3943 25.3698C31.4339 25.0814 31.5233 24.7766 31.5931 24.6925C31.663 24.6084 31.7267 24.299 31.7345 24.0052L31.749 23.4709L32.3123 23.3351C33.0236 23.1636 33.5878 23.2295 33.8763 23.5179ZM30.1486 27.2352C30.0094 27.7673 28.2891 29.1902 28.061 28.962C27.8915 28.7926 28.0739 27.8433 28.2915 27.7619C28.3938 27.7237 28.7544 27.5416 29.0928 27.3571C29.8193 26.9612 30.2327 26.9135 30.1486 27.2352ZM3.22537 34.4936C2.71069 34.7718 2.87128 34.9076 3.40197 34.6428C3.83805 34.4253 4.06302 34.5624 4.06302 35.0457C4.06302 35.419 3.79316 35.5858 3.51203 35.386C3.20124 35.1652 2.70979 34.907 2.70979 34.9645C2.70979 34.9946 2.84884 35.1481 3.01878 35.3058C3.3687 35.6302 3.95408 35.6902 4.17477 35.4243C4.36648 35.1932 4.22236 34.4973 3.95284 34.3531C3.69596 34.2156 3.76351 34.2026 3.22537 34.4936Z" fill="url(#paint0_linear_1830_3054)"/>
<path d="M36.831 7.79919L37.0859 8.50037L37.7871 8.75523L37.0859 9.01009L36.831 9.71127L36.5762 9.01009L35.875 8.75523L36.5762 8.50037L36.831 7.79919Z" fill="url(#paint1_radial_1830_3054)"/>
<path d="M39.0459 9.00696L39.3007 9.70814L40.0019 9.963L39.3007 10.2179L39.0459 10.919L38.791 10.2179L38.0898 9.963L38.791 9.70814L39.0459 9.00696Z" fill="url(#paint2_radial_1830_3054)"/>
<defs>
<linearGradient id="paint0_linear_1830_3054" x1="38.9963" y1="47.7054" x2="16.6384" y2="14.4286" gradientUnits="userSpaceOnUse">
<stop offset="0.83" stop-color="#F2C008"/>
</linearGradient>
<radialGradient id="paint1_radial_1830_3054" cx="0" cy="0" r="1" gradientUnits="userSpaceOnUse" gradientTransform="translate(36.831 8.75523) rotate(90) scale(0.956038)">
<stop stop-color="#EEBB4D"/>
<stop offset="0.385" stop-color="#EEBB4D"/>
<stop offset="0.655" stop-color="#EBB94C"/>
<stop offset="0.805" stop-color="#886B2C"/>
</radialGradient>
<radialGradient id="paint2_radial_1830_3054" cx="0" cy="0" r="1" gradientUnits="userSpaceOnUse" gradientTransform="translate(39.0459 9.963) rotate(90) scale(0.956038)">
<stop stop-color="#EEBB4D"/>
<stop offset="0.385" stop-color="#EEBB4D"/>
<stop offset="0.655" stop-color="#EBB94C"/>
<stop offset="0.805" stop-color="#886B2C"/>
</radialGradient>
</defs>
</svg>
