<svg width="107" height="107" viewBox="0 0 107 107" fill="none" xmlns="http://www.w3.org/2000/svg">
<path d="M22.2917 51.27C22.2917 49.4964 22.9962 47.7954 24.2504 46.5412C25.5045 45.2871 27.2055 44.5825 28.9792 44.5825H78.0208C79.7945 44.5825 81.4955 45.2871 82.7496 46.5412C84.0038 47.7954 84.7083 49.4964 84.7083 51.27C84.7083 53.0437 84.0038 54.7446 82.7496 55.9988C81.4955 57.2529 79.7945 57.9575 78.0208 57.9575H28.9792C27.2055 57.9575 25.5045 57.2529 24.2504 55.9988C22.9962 54.7446 22.2917 53.0437 22.2917 51.27ZM28.9792 80.2492H60.1875C61.9611 80.2492 63.6621 79.5446 64.9163 78.2905C66.1704 77.0363 66.875 75.3353 66.875 73.5617C66.875 71.788 66.1704 70.0871 64.9163 68.8329C63.6621 67.5788 61.9611 66.8742 60.1875 66.8742H28.9792C27.2055 66.8742 25.5045 67.5788 24.2504 68.8329C22.9962 70.0871 22.2917 71.788 22.2917 73.5617C22.2917 75.3353 22.9962 77.0363 24.2504 78.2905C25.5045 79.5446 27.2055 80.2492 28.9792 80.2492ZM107 28.9784V78.02C106.993 84.5212 104.407 90.754 99.8102 95.351C95.2132 99.9481 88.9803 102.534 82.4792 102.541H24.5208C18.0197 102.534 11.7868 99.9481 7.18981 95.351C2.59279 90.754 0.00708059 84.5212 0 78.02L0 28.9784C0.00708059 22.4772 2.59279 16.2443 7.18981 11.6473C11.7868 7.05031 18.0197 4.4646 24.5208 4.45752H82.4792C88.9803 4.4646 95.2132 7.05031 99.8102 11.6473C104.407 16.2443 106.993 22.4772 107 28.9784ZM35.6667 20.0617C35.6667 21.3843 36.0589 22.6773 36.7937 23.7771C37.5285 24.8768 38.573 25.734 39.795 26.2401C41.017 26.7463 42.3616 26.8787 43.6588 26.6207C44.9561 26.3626 46.1477 25.7257 47.0829 24.7905C48.0182 23.8552 48.6551 22.6636 48.9132 21.3664C49.1712 20.0691 49.0388 18.7245 48.5326 17.5025C48.0265 16.2805 47.1693 15.2361 46.0695 14.5012C44.9698 13.7664 43.6768 13.3742 42.3542 13.3742C40.5805 13.3742 38.8795 14.0788 37.6254 15.3329C36.3712 16.5871 35.6667 18.288 35.6667 20.0617ZM13.375 20.0617C13.375 21.3843 13.7672 22.6773 14.502 23.7771C15.2369 24.8768 16.2813 25.734 17.5033 26.2401C18.7253 26.7463 20.0699 26.8787 21.3672 26.6207C22.6644 26.3626 23.856 25.7257 24.7913 24.7905C25.7265 23.8552 26.3635 22.6636 26.6215 21.3664C26.8795 20.0691 26.7471 18.7245 26.2409 17.5025C25.7348 16.2805 24.8776 15.2361 23.7779 14.5012C22.6781 13.7664 21.3852 13.3742 20.0625 13.3742C18.2889 13.3742 16.5879 14.0788 15.3337 15.3329C14.0796 16.5871 13.375 18.288 13.375 20.0617ZM93.625 35.6659H13.375V78.02C13.375 80.9761 14.5493 83.8111 16.6395 85.9013C18.7298 87.9916 21.5648 89.1658 24.5208 89.1658H82.4792C85.4352 89.1658 88.2702 87.9916 90.3605 85.9013C92.4507 83.8111 93.625 80.9761 93.625 78.02V35.6659Z" fill="white"/>
</svg>
