<svg width="107" height="107" viewBox="0 0 107 107" fill="none" xmlns="http://www.w3.org/2000/svg">
<g clip-path="url(#clip0_1821_2990)">
<path d="M100.086 84.7092H67.3261C65.7848 81.491 63.189 78.8968 59.9699 77.3574V62.4176C64.6288 62.4176 68.5967 62.373 70.6699 62.3329C72.3294 62.3035 73.9816 62.1048 75.6008 61.7399C80.6505 60.6374 85.1793 57.8605 88.452 53.8599C91.7248 49.8593 93.5493 44.8701 93.6293 39.702C93.7093 34.534 92.0402 29.4906 88.8929 25.3906C85.7456 21.2906 81.305 18.3748 76.2918 17.1164L75.467 16.9247C75.2174 16.8668 74.8384 16.7776 74.8919 16.8846C74.8504 16.8141 74.8132 16.7411 74.7804 16.6661C72.3461 11.0672 68.1326 6.42774 62.7932 3.46707C57.4539 0.506399 51.2869 -0.610094 45.2484 0.290688C39.9287 1.04825 34.958 3.38287 30.9782 6.99321C26.9983 10.6035 24.1919 15.3239 22.9211 20.5449C22.0687 23.894 21.8809 27.3777 22.3683 30.7991C19.3712 32.3641 16.9208 34.8033 15.342 37.7931C13.7631 40.783 13.1305 44.1821 13.528 47.5397C13.9255 50.8974 15.3344 54.0548 17.5678 56.5933C19.8011 59.1318 22.7534 60.9313 26.033 61.7533C27.3454 62.0904 28.6912 62.2803 30.0455 62.3195C32.5511 62.3774 39.2386 62.4176 46.5859 62.4176V77.3574C43.3701 78.8985 40.7777 81.4925 39.2386 84.7092H6.46094C4.6873 84.7092 2.98631 85.4138 1.73216 86.668C0.478011 87.9221 -0.226562 89.6231 -0.226562 91.3967C-0.226562 93.1704 0.478011 94.8714 1.73216 96.1255C2.98631 97.3797 4.6873 98.0842 6.46094 98.0842H39.2386C40.4896 100.753 42.4749 103.009 44.9621 104.59C47.4492 106.171 50.3353 107.011 53.2824 107.011C56.2294 107.011 59.1155 106.171 61.6026 104.59C64.0898 103.009 66.0751 100.753 67.3261 98.0842H100.095C101.868 98.0842 103.569 97.3797 104.824 96.1255C106.078 94.8714 106.782 93.1704 106.782 91.3967C106.782 89.6231 106.078 87.9221 104.824 86.668C103.569 85.4138 101.868 84.7092 100.095 84.7092H100.086ZM29.3545 48.7884C28.784 48.637 28.2608 48.3445 27.8331 47.9378C27.4054 47.5311 27.0868 47.0233 26.9069 46.4612C26.7439 45.5852 26.8997 44.6798 27.3461 43.9087C27.7926 43.1376 28.5002 42.5517 29.3411 42.257C31.6941 41.2725 33.6272 39.4937 34.8036 37.2306C35.98 34.9674 36.3252 32.3632 35.7789 29.8717C35.3453 27.8601 35.3849 25.7753 35.8949 23.7816C36.5508 21.1566 37.9667 18.7835 39.9652 16.9594C41.9637 15.1354 44.456 13.9416 47.1299 13.5275C47.8389 13.4285 48.5539 13.3779 49.2699 13.3759C52.0637 13.3458 54.8048 14.1367 57.1532 15.6505C59.5016 17.1643 61.3537 19.3343 62.4799 21.8913C63.3808 24.0186 64.809 25.8813 66.6297 27.3033C68.4504 28.7254 70.6035 29.66 72.8857 30.0189C74.9987 30.5147 76.8796 31.716 78.2182 33.4244C79.5569 35.1328 80.2734 37.2464 80.2495 39.4167C80.2256 41.587 79.4628 43.6844 78.0868 45.3629C76.7109 47.0415 74.804 48.201 72.6806 48.6502C71.9368 48.8182 71.178 48.9108 70.4157 48.9266C63.5142 49.0515 36.0019 49.0782 30.3933 48.9266C30.043 48.9181 29.6948 48.8717 29.3545 48.7884Z" fill="white"/>
</g>
<defs>
<clipPath id="clip0_1821_2990">
<rect width="107" height="107" fill="white"/>
</clipPath>
</defs>
</svg>
