<svg width="107" height="107" viewBox="0 0 107 107" fill="none" xmlns="http://www.w3.org/2000/svg">
<g clip-path="url(#clip0_1821_2991)">
<path d="M107 42.3542C107.011 39.5592 106.27 36.8127 104.856 34.4017C103.443 31.9906 101.407 30.0036 98.9627 28.6483C96.5183 27.2929 93.7548 26.619 90.9609 26.6969C88.167 26.7749 85.4453 27.6018 83.0802 29.0913C80.7152 30.5808 78.7936 32.6782 77.5164 35.1643C76.2391 37.6503 75.6531 40.4339 75.8195 43.2239C75.9858 46.0139 76.8986 48.7081 78.4622 51.0247C80.0259 53.3414 82.1831 55.1956 84.7083 56.3935V71.3333C84.7083 77.2455 82.3598 82.9154 78.1793 87.0959C73.9988 91.2764 68.3288 93.625 62.4167 93.625C56.5046 93.625 50.8346 91.2764 46.6541 87.0959C42.4736 82.9154 40.125 77.2455 40.125 71.3333V70.6601C47.6719 69.1085 54.4531 65.0026 59.3258 59.0344C64.1985 53.0662 66.8647 45.6006 66.875 37.8958V24.5208C66.8679 18.0197 64.2822 11.7868 59.6852 7.18981C55.0882 2.59279 48.8553 0.00708059 42.3542 0C40.5805 0 38.8795 0.704574 37.6254 1.95872C36.3712 3.21287 35.6667 4.91387 35.6667 6.6875C35.6667 8.46114 36.3712 10.1621 37.6254 11.4163C38.8795 12.6704 40.5805 13.375 42.3542 13.375C43.8179 13.375 45.2672 13.6633 46.6195 14.2234C47.9718 14.7836 49.2005 15.6046 50.2355 16.6395C51.2705 17.6745 52.0915 18.9032 52.6516 20.2555C53.2117 21.6078 53.5 23.0571 53.5 24.5208V37.8958C53.5 43.2167 51.3863 48.3197 47.6238 52.0822C43.8614 55.8446 38.7584 57.9583 33.4375 57.9583C28.1166 57.9583 23.0136 55.8446 19.2512 52.0822C15.4887 48.3197 13.375 43.2167 13.375 37.8958V24.5208C13.375 21.5648 14.5493 18.7298 16.6395 16.6395C18.7298 14.5493 21.5648 13.375 24.5208 13.375C26.2945 13.375 27.9955 12.6704 29.2496 11.4163C30.5038 10.1621 31.2083 8.46114 31.2083 6.6875C31.2083 4.91387 30.5038 3.21287 29.2496 1.95872C27.9955 0.704574 26.2945 0 24.5208 0C18.0197 0.00708059 11.7868 2.59279 7.18981 7.18981C2.59279 11.7868 0.00708059 18.0197 0 24.5208L0 37.8958C0.0103346 45.6006 2.67652 53.0662 7.54921 59.0344C12.4219 65.0026 19.2031 69.1085 26.75 70.6601V71.3333C26.75 80.7927 30.5077 89.8647 37.1965 96.5535C43.8853 103.242 52.9573 107 62.4167 107C71.8761 107 80.948 103.242 87.6368 96.5535C94.3256 89.8647 98.0833 80.7927 98.0833 71.3333V56.3935C100.742 55.1323 102.99 53.1449 104.568 50.6608C106.146 48.1766 106.989 45.297 107 42.3542Z" fill="white"/>
</g>
<defs>
<clipPath id="clip0_1821_2991">
<rect width="107" height="107" fill="white"/>
</clipPath>
</defs>
</svg>
